<?xml version="1.0" encoding="UTF-8" standalone="no"?>
<!-- Created with Inkscape (http://www.inkscape.org/) -->

<svg
   width="210mm"
   height="297mm"
   viewBox="0 0 210 297"
   version="1.1"
   id="svg1"
   inkscape:version="1.3.2 (091e20e, 2023-11-25)"
   sodipodi:docname="north.svg"
   xmlns:inkscape="http://www.inkscape.org/namespaces/inkscape"
   xmlns:sodipodi="http://sodipodi.sourceforge.net/DTD/sodipodi-0.dtd"
   xmlns="http://www.w3.org/2000/svg"
   xmlns:svg="http://www.w3.org/2000/svg">
  <sodipodi:namedview
     id="namedview1"
     pagecolor="#ffffff"
     bordercolor="#000000"
     borderopacity="0.25"
     inkscape:showpageshadow="2"
     inkscape:pageopacity="0.0"
     inkscape:pagecheckerboard="0"
     inkscape:deskcolor="#d1d1d1"
     inkscape:document-units="mm"
     inkscape:zoom="0.63234634"
     inkscape:cx="423.81838"
     inkscape:cy="607.26215"
     inkscape:window-width="1792"
     inkscape:window-height="1067"
     inkscape:window-x="0"
     inkscape:window-y="25"
     inkscape:window-maximized="0"
     inkscape:current-layer="layer1" />
  <defs
     id="defs1" />
  <g
     inkscape:label="Calque 1"
     inkscape:groupmode="layer"
     id="layer1">
    <path
       style="fill:none;fill-opacity:0;stroke:#000000;stroke-width:1.226"
       d="m 69.317941,96.775047 c 4.212585,-8.448217 72.405569,-6.488377 72.918869,0 1.28476,23.974643 0.90024,85.522133 0.90024,85.522133 H 67.517474 c 0,0 0.673694,-77.84537 1.800467,-85.522133 z"
       id="path1"
       sodipodi:nodetypes="ccccc" />
    <path
       style="fill:none;fill-opacity:0;stroke:#000000;stroke-width:1.226"
       d="m 59.202413,162.04194 c 1.210293,-6.28075 7.645233,-6.11788 7.65198,0 0.0093,8.41045 0.417522,16.73382 0.450117,28.35734 0.01617,5.76521 -10.093451,7.05101 -10.35268,0 -0.331479,-9.01621 1.174211,-21.70334 2.250583,-28.35734 z"
       id="path2"
       sodipodi:nodetypes="csssc" />
    <path
       style="fill:none;fill-opacity:0;stroke:#000000;stroke-width:1.0197"
       d="m 61.368494,90.370492 c 1.3291,-4.384537 5.529939,-3.464921 6.48085,0 0.436608,11.950908 1.799129,17.567548 0.381226,23.161798 -1.417903,5.59425 -6.439754,5.72392 -8.768208,0 -1.29985,-5.98107 0.834183,-13.11994 1.906132,-23.161798 z"
       id="path3"
       sodipodi:nodetypes="cczcc" />
    <path
       style="fill:none;fill-opacity:0;stroke:#000000;stroke-width:1.226"
       d="m 90.473415,117.93052 c 5.693026,-1.38799 24.461675,0.37186 29.707685,0.45012 5.24601,0.0783 7.12056,23.64113 3.60094,26.55687 -3.51962,2.91574 -36.001973,3.3753 -38.710022,-1.80047 -2.708049,-5.17577 -0.291629,-23.81853 5.401397,-25.20652 z"
       id="path4"
       sodipodi:nodetypes="zzzzz" />
    <path
       style="fill:none;fill-opacity:0;stroke:#000000;stroke-width:1.30156"
       d="M 96.370399,138.22333 H 113.78173 L 102.89965,126.05256 Z"
       id="path5" />
    <path
       style="fill:none;fill-opacity:0;stroke:#000000;stroke-width:1.226"
       d="m 94.331498,117.86593 c 0.42361,-0.84722 5.143994,-7.61092 12.153142,-7.20186 7.37697,0.43053 9.00233,8.10209 9.00233,8.10209"
       id="path6"
       sodipodi:nodetypes="csc" />
    <path
       style="fill:none;fill-opacity:0;stroke:#000000;stroke-width:1.226"
       d="m 72.018638,182.29718 4.501166,49.0627 56.264566,0.45011 3.60093,-49.51281"
       id="path7"
       sodipodi:nodetypes="cccc" />
    <path
       style="fill:none;fill-opacity:0;stroke:#000000;stroke-width:1.226"
       d="m 76.648176,231.42406 c 0,0 -6.386567,13.59161 -2.250583,18.00466 3.839488,4.0967 51.467977,4.81742 63.274277,0.19297 1.77741,-4.62445 -4.75914,-18.19763 -4.75914,-18.19763"
       id="path8"
       sodipodi:nodetypes="cscc" />
    <path
       style="fill:none;fill-opacity:0;stroke:#000000;stroke-width:1.05513"
       d="m 79.782056,231.69183 c 0,0 -5.703695,11.27237 -2.009944,14.93239 3.428958,3.39765 45.964868,3.99539 56.508798,0.16004 1.58736,-3.83534 -4.25028,-15.09243 -4.25028,-15.09243"
       id="path8-7"
       sodipodi:nodetypes="cscc" />
    <path
       style="fill:none;fill-opacity:0;stroke:#000000;stroke-width:1.19761"
       d="m 151.46608,163.03441 c -0.91159,-5.15958 -7.44874,-6.53519 -7.69457,0 -0.24584,6.5352 -0.48413,20.44808 -0.45264,26.90957 0.0316,6.46151 10.0415,6.84898 10.41031,0 0.4321,-8.02425 -0.80156,-18.63724 -2.2631,-26.90957 z"
       id="path2-0"
       sodipodi:nodetypes="szzss" />
    <path
       style="fill:none;fill-opacity:0;stroke:#000000;stroke-width:1.07841"
       d="m 150.47842,91.164472 c -1.95548,-5.482521 -5.69465,-4.578552 -7.25343,0 -0.0159,8.950118 0.096,17.168758 -0.42667,23.146428 0.76305,4.94906 7.12924,5.87084 9.81347,0 -0.14443,-8.95665 -1.7208,-14.835245 -2.13337,-23.146428 z"
       id="path3-3"
       sodipodi:nodetypes="ccccc" />
    <path
       style="fill:none;fill-opacity:0;stroke:#000000;stroke-width:1.10722"
       d="m 76.407791,182.35785 3.895815,46.23417 48.697684,0.42416 3.11665,-46.65833"
       id="path7-9"
       sodipodi:nodetypes="cccc" />
    <rect
       style="fill:none;fill-opacity:0;stroke:none;stroke-width:1.226"
       id="rect8"
       width="207.95236"
       height="207.95236"
       x="1.0337427"
       y="61.987022"
       inkscape:export-filename="rect8.png"
       inkscape:export-xdpi="12.214336"
       inkscape:export-ydpi="12.214336" />
  </g>
</svg>
