<?xml version="1.0" encoding="UTF-8" standalone="no"?>
<!DOCTYPE svg PUBLIC "-//W3C//DTD SVG 1.1//EN"
 "http://www.w3.org/Graphics/SVG/1.1/DTD/svg11.dtd">
<!-- Generated by graphviz version 2.40.1 (20161225.0304)
 -->
<!-- Title: %3 Pages: 1 -->
<svg width="3826pt" height="836pt"
 viewBox="0.00 0.00 3826.00 836.00" xmlns="http://www.w3.org/2000/svg" xmlns:xlink="http://www.w3.org/1999/xlink">
<g id="graph0" class="graph" transform="scale(1 1) rotate(0) translate(4 832)">
<title>%3</title>
<polygon fill="#ffffff" stroke="transparent" points="-4,4 -4,-832 3822,-832 3822,4 -4,4"/>
<!-- cobalt&#45;events&#45;model -->
<g id="node1" class="node">
<title>cobalt&#45;events&#45;model</title>
<ellipse fill="none" stroke="#000000" cx="1035" cy="-450" rx="82.1027" ry="18"/>
<text text-anchor="middle" x="1035" y="-445.8" font-family="Times,serif" font-size="14.00" fill="#000000">cobalt&#45;events&#45;model</text>
</g>
<!-- cobalt&#45;model -->
<g id="node2" class="node">
<title>cobalt&#45;model</title>
<ellipse fill="none" stroke="#000000" cx="1454" cy="-162" rx="56.5287" ry="18"/>
<text text-anchor="middle" x="1454" y="-157.8" font-family="Times,serif" font-size="14.00" fill="#000000">cobalt&#45;model</text>
</g>
<!-- cobalt&#45;events&#45;model&#45;&gt;cobalt&#45;model -->
<g id="edge1" class="edge">
<title>cobalt&#45;events&#45;model&#45;&gt;cobalt&#45;model</title>
<path fill="none" stroke="#000000" d="M1049.2263,-432.2693C1084.7795,-389.0807 1182.2071,-277.4788 1287,-216 1320.7026,-196.2277 1362.5439,-182.7144 1395.9138,-174.1509"/>
<polygon fill="#000000" stroke="#000000" points="1397.1183,-177.4581 1405.9796,-171.6507 1395.4308,-170.6646 1397.1183,-177.4581"/>
</g>
<!-- eco&#45;model -->
<g id="node3" class="node">
<title>eco&#45;model</title>
<ellipse fill="none" stroke="#000000" cx="501" cy="-378" rx="47.3564" ry="18"/>
<text text-anchor="middle" x="501" y="-373.8" font-family="Times,serif" font-size="14.00" fill="#000000">eco&#45;model</text>
</g>
<!-- cobalt&#45;events&#45;model&#45;&gt;eco&#45;model -->
<g id="edge2" class="edge">
<title>cobalt&#45;events&#45;model&#45;&gt;eco&#45;model</title>
<path fill="none" stroke="#000000" d="M959.1636,-442.9576C845.3988,-432.118 636.0128,-411.0267 562,-396 557.0545,-394.9959 551.9306,-393.7767 546.8496,-392.451"/>
<polygon fill="#000000" stroke="#000000" points="547.7596,-389.0714 537.1898,-389.7993 545.9065,-395.8217 547.7596,-389.0714"/>
</g>
<!-- cobalt&#45;infrastructure -->
<g id="node7" class="node">
<title>cobalt&#45;infrastructure</title>
<ellipse fill="none" stroke="#000000" cx="1756" cy="-90" rx="82.0855" ry="18"/>
<text text-anchor="middle" x="1756" y="-85.8" font-family="Times,serif" font-size="14.00" fill="#000000">cobalt&#45;infrastructure</text>
</g>
<!-- cobalt&#45;model&#45;&gt;cobalt&#45;infrastructure -->
<g id="edge29" class="edge">
<title>cobalt&#45;model&#45;&gt;cobalt&#45;infrastructure</title>
<path fill="none" stroke="#000000" d="M1499.5394,-151.1429C1550.3194,-139.0364 1632.8816,-119.3527 1690.57,-105.5992"/>
<polygon fill="#000000" stroke="#000000" points="1691.4056,-108.9982 1700.3213,-103.2744 1689.7822,-102.189 1691.4056,-108.9982"/>
</g>
<!-- cobalt&#45;monitoring -->
<g id="node8" class="node">
<title>cobalt&#45;monitoring</title>
<ellipse fill="none" stroke="#000000" cx="2677" cy="-18" rx="73.9257" ry="18"/>
<text text-anchor="middle" x="2677" y="-13.8" font-family="Times,serif" font-size="14.00" fill="#000000">cobalt&#45;monitoring</text>
</g>
<!-- cobalt&#45;model&#45;&gt;cobalt&#45;monitoring -->
<g id="edge28" class="edge">
<title>cobalt&#45;model&#45;&gt;cobalt&#45;monitoring</title>
<path fill="none" stroke="#000000" d="M1481.9292,-146.3141C1521.3341,-125.0764 1596.1437,-87.9946 1665,-72 1840.4701,-31.2401 2382.7265,-21.1366 2592.7234,-18.7251"/>
<polygon fill="#000000" stroke="#000000" points="2592.8103,-22.2245 2602.7705,-18.6128 2592.7319,-15.2249 2592.8103,-22.2245"/>
</g>
<!-- eco&#45;model&#45;&gt;cobalt&#45;model -->
<g id="edge53" class="edge">
<title>eco&#45;model&#45;&gt;cobalt&#45;model</title>
<path fill="none" stroke="#000000" d="M501.7644,-359.9198C504.2992,-325.4104 515.203,-250.5212 562,-216 595.0951,-191.5864 1185.4486,-170.5651 1387.1178,-164.0685"/>
<polygon fill="#000000" stroke="#000000" points="1387.3969,-167.5615 1397.2796,-163.7429 1387.1726,-160.5651 1387.3969,-167.5615"/>
</g>
<!-- infra&#45;cassandra -->
<g id="node4" class="node">
<title>infra&#45;cassandra</title>
<ellipse fill="none" stroke="#000000" cx="1508" cy="-378" rx="64.2354" ry="18"/>
<text text-anchor="middle" x="1508" y="-373.8" font-family="Times,serif" font-size="14.00" fill="#000000">infra&#45;cassandra</text>
</g>
<!-- infra&#45;cassandra&#45;&gt;cobalt&#45;model -->
<g id="edge4" class="edge">
<title>infra&#45;cassandra&#45;&gt;cobalt&#45;model</title>
<path fill="none" stroke="#000000" d="M1459.9031,-365.9568C1438.2504,-357.8754 1414.7344,-344.779 1402,-324 1376.9186,-283.0742 1384.0503,-260.5175 1402,-216 1406.6301,-204.5167 1415,-194.1109 1423.6908,-185.5676"/>
<polygon fill="#000000" stroke="#000000" points="1426.3254,-187.9002 1431.3248,-178.559 1421.5913,-182.7437 1426.3254,-187.9002"/>
</g>
<!-- domain -->
<g id="node5" class="node">
<title>domain</title>
<ellipse fill="none" stroke="#000000" cx="2677" cy="-234" rx="36.7663" ry="18"/>
<text text-anchor="middle" x="2677" y="-229.8" font-family="Times,serif" font-size="14.00" fill="#000000">domain</text>
</g>
<!-- infra&#45;cassandra&#45;&gt;domain -->
<g id="edge3" class="edge">
<title>infra&#45;cassandra&#45;&gt;domain</title>
<path fill="none" stroke="#000000" d="M1564.8476,-369.6367C1679.6349,-352.8976 1947.3804,-314.6036 2173,-288 2331.8133,-269.2738 2372.0785,-269.7847 2531,-252 2564.568,-248.2434 2602.42,-243.564 2631.17,-239.918"/>
<polygon fill="#000000" stroke="#000000" points="2631.8476,-243.3601 2641.3255,-238.6251 2630.9635,-236.4161 2631.8476,-243.3601"/>
</g>
<!-- cobalt&#45;test -->
<g id="node6" class="node">
<title>cobalt&#45;test</title>
<ellipse fill="none" stroke="#000000" cx="1643" cy="-306" rx="46.8805" ry="18"/>
<text text-anchor="middle" x="1643" y="-301.8" font-family="Times,serif" font-size="14.00" fill="#000000">cobalt&#45;test</text>
</g>
<!-- infra&#45;cassandra&#45;&gt;cobalt&#45;test -->
<g id="edge5" class="edge">
<title>infra&#45;cassandra&#45;&gt;cobalt&#45;test</title>
<path fill="none" stroke="#000000" d="M1537.9609,-362.0209C1558.2159,-351.2182 1585.0834,-336.8889 1606.5748,-325.4268"/>
<polygon fill="#000000" stroke="#000000" points="1608.2448,-328.5028 1615.4212,-320.7087 1604.9506,-322.3264 1608.2448,-328.5028"/>
</g>
<!-- domain&#45;&gt;cobalt&#45;model -->
<g id="edge48" class="edge">
<title>domain&#45;&gt;cobalt&#45;model</title>
<path fill="none" stroke="#000000" d="M2641.6728,-228.9156C2612.1506,-224.8421 2568.9114,-219.2831 2531,-216 2149.4425,-182.9577 1689.9553,-168.2412 1520.7372,-163.6618"/>
<polygon fill="#000000" stroke="#000000" points="1520.8233,-160.163 1510.7331,-163.3938 1520.6358,-167.1605 1520.8233,-160.163"/>
</g>
<!-- domain&#45;&gt;cobalt&#45;monitoring -->
<g id="edge47" class="edge">
<title>domain&#45;&gt;cobalt&#45;monitoring</title>
<path fill="none" stroke="#000000" d="M2677,-215.9555C2677,-178.3938 2677,-91.5541 2677,-46.4103"/>
<polygon fill="#000000" stroke="#000000" points="2680.5001,-46.145 2677,-36.1451 2673.5001,-46.1451 2680.5001,-46.145"/>
</g>
<!-- cobalt&#45;test&#45;&gt;cobalt&#45;model -->
<g id="edge51" class="edge">
<title>cobalt&#45;test&#45;&gt;cobalt&#45;model</title>
<path fill="none" stroke="#000000" d="M1634.8438,-288.1807C1624.9021,-268.2036 1606.3681,-235.9966 1582,-216 1560.273,-198.1707 1531.8038,-185.384 1507.2324,-176.7435"/>
<polygon fill="#000000" stroke="#000000" points="1508.2725,-173.4006 1497.6783,-173.5197 1506.0344,-180.0332 1508.2725,-173.4006"/>
</g>
<!-- cobalt&#45;test&#45;&gt;domain -->
<g id="edge49" class="edge">
<title>cobalt&#45;test&#45;&gt;domain</title>
<path fill="none" stroke="#000000" d="M1678.1408,-294.0493C1686.5234,-291.6409 1695.5047,-289.4165 1704,-288 2066.8935,-227.4907 2164.3655,-282.5325 2531,-252 2564.7743,-249.1874 2602.7649,-244.4539 2631.525,-240.5469"/>
<polygon fill="#000000" stroke="#000000" points="2632.2488,-243.9804 2641.6784,-239.1499 2631.2946,-237.0457 2632.2488,-243.9804"/>
</g>
<!-- cobalt&#45;test&#45;&gt;cobalt&#45;infrastructure -->
<g id="edge52" class="edge">
<title>cobalt&#45;test&#45;&gt;cobalt&#45;infrastructure</title>
<path fill="none" stroke="#000000" d="M1652.2473,-288.3238C1671.9883,-250.5887 1718.3636,-161.9421 1741.8454,-117.0566"/>
<polygon fill="#000000" stroke="#000000" points="1745.0907,-118.4036 1746.625,-107.9204 1738.8882,-115.1587 1745.0907,-118.4036"/>
</g>
<!-- kafka -->
<g id="node10" class="node">
<title>kafka</title>
<ellipse fill="none" stroke="#000000" cx="1756" cy="-234" rx="29.9931" ry="18"/>
<text text-anchor="middle" x="1756" y="-229.8" font-family="Times,serif" font-size="14.00" fill="#000000">kafka</text>
</g>
<!-- cobalt&#45;test&#45;&gt;kafka -->
<g id="edge50" class="edge">
<title>cobalt&#45;test&#45;&gt;kafka</title>
<path fill="none" stroke="#000000" d="M1667.2413,-290.5542C1684.6292,-279.4752 1708.147,-264.4904 1726.6061,-252.7289"/>
<polygon fill="#000000" stroke="#000000" points="1728.6596,-255.5706 1735.2124,-247.2452 1724.898,-249.6671 1728.6596,-255.5706"/>
</g>
<!-- cobalt&#45;infrastructure&#45;&gt;cobalt&#45;monitoring -->
<g id="edge6" class="edge">
<title>cobalt&#45;infrastructure&#45;&gt;cobalt&#45;monitoring</title>
<path fill="none" stroke="#000000" d="M1833.7302,-83.9234C2006.469,-70.4194 2420.8051,-38.0283 2596.2873,-24.3098"/>
<polygon fill="#000000" stroke="#000000" points="2596.7894,-27.7813 2606.4861,-23.5125 2596.2437,-20.8026 2596.7894,-27.7813"/>
</g>
<!-- eco&#45;consumer -->
<g id="node9" class="node">
<title>eco&#45;consumer</title>
<ellipse fill="none" stroke="#000000" cx="505" cy="-450" rx="59.9097" ry="18"/>
<text text-anchor="middle" x="505" y="-445.8" font-family="Times,serif" font-size="14.00" fill="#000000">eco&#45;consumer</text>
</g>
<!-- eco&#45;consumer&#45;&gt;eco&#45;model -->
<g id="edge7" class="edge">
<title>eco&#45;consumer&#45;&gt;eco&#45;model</title>
<path fill="none" stroke="#000000" d="M503.9906,-431.8314C503.5628,-424.131 503.0541,-414.9743 502.5787,-406.4166"/>
<polygon fill="#000000" stroke="#000000" points="506.0724,-406.2037 502.023,-396.4133 499.0831,-406.592 506.0724,-406.2037"/>
</g>
<!-- eco&#45;consumer&#45;&gt;infra&#45;cassandra -->
<g id="edge11" class="edge">
<title>eco&#45;consumer&#45;&gt;infra&#45;cassandra</title>
<path fill="none" stroke="#000000" d="M556.2474,-440.5884C574.9912,-437.4375 596.4027,-434.1766 616,-432 918.2198,-398.4334 1280.5294,-384.612 1433.7684,-379.977"/>
<polygon fill="#000000" stroke="#000000" points="1434.1057,-383.4686 1443.9969,-379.6719 1433.897,-376.4717 1434.1057,-383.4686"/>
</g>
<!-- eco&#45;consumer&#45;&gt;cobalt&#45;test -->
<g id="edge12" class="edge">
<title>eco&#45;consumer&#45;&gt;cobalt&#45;test</title>
<path fill="none" stroke="#000000" d="M557.1728,-441.1427C575.7233,-438.0985 596.7727,-434.764 616,-432 743.2471,-413.7081 785.1457,-447.3497 903,-396 925.8499,-386.0442 922.9203,-369.4108 946,-360 1004.57,-336.118 1429.9204,-315.3238 1585.8777,-308.4243"/>
<polygon fill="#000000" stroke="#000000" points="1586.357,-311.9067 1596.1937,-307.9708 1586.0496,-304.9134 1586.357,-311.9067"/>
</g>
<!-- eco&#45;consumer&#45;&gt;cobalt&#45;infrastructure -->
<g id="edge13" class="edge">
<title>eco&#45;consumer&#45;&gt;cobalt&#45;infrastructure</title>
<path fill="none" stroke="#000000" d="M446.6601,-445.9074C356.047,-438.8269 186.254,-422.4569 132,-396 80.0127,-370.6484 38,-363.8393 38,-306 38,-306 38,-306 38,-234 38,-180.4818 69.5464,-166.7255 118,-144 188.2341,-111.0591 1327.8542,-95.0503 1663.6142,-91.0336"/>
<polygon fill="#000000" stroke="#000000" points="1663.8312,-94.5313 1673.7889,-90.9126 1663.7479,-87.5318 1663.8312,-94.5313"/>
</g>
<!-- eco&#45;consumer&#45;&gt;kafka -->
<g id="edge8" class="edge">
<title>eco&#45;consumer&#45;&gt;kafka</title>
<path fill="none" stroke="#000000" d="M445.6344,-447.8536C368.0416,-443.6563 238.5274,-431.4015 209,-396 198.7517,-383.7129 198.724,-372.2639 209,-360 326.4174,-219.8674 432.3149,-308.3597 614,-288 834.3642,-263.3059 1540.0056,-240.5819 1715.962,-235.2003"/>
<polygon fill="#000000" stroke="#000000" points="1716.185,-238.6952 1726.0738,-234.8923 1715.9718,-231.6985 1716.185,-238.6952"/>
</g>
<!-- http -->
<g id="node11" class="node">
<title>http</title>
<ellipse fill="none" stroke="#000000" cx="2871" cy="-306" rx="27" ry="18"/>
<text text-anchor="middle" x="2871" y="-301.8" font-family="Times,serif" font-size="14.00" fill="#000000">http</text>
</g>
<!-- eco&#45;consumer&#45;&gt;http -->
<g id="edge9" class="edge">
<title>eco&#45;consumer&#45;&gt;http</title>
<path fill="none" stroke="#000000" d="M556.8725,-441.0401C575.4889,-437.9696 596.6574,-434.6446 616,-432 759.113,-412.4332 796.5449,-419.89 939,-396 1010.8851,-383.9447 1026.6879,-369.1517 1099,-360 1451.6249,-315.3722 2610.3601,-307.3166 2833.5989,-306.1679"/>
<polygon fill="#000000" stroke="#000000" points="2833.8243,-309.6669 2843.8066,-306.1169 2833.7892,-302.667 2833.8243,-309.6669"/>
</g>
<!-- infra&#45;postgres -->
<g id="node12" class="node">
<title>infra&#45;postgres</title>
<ellipse fill="none" stroke="#000000" cx="682" cy="-306" rx="59.4426" ry="18"/>
<text text-anchor="middle" x="682" y="-301.8" font-family="Times,serif" font-size="14.00" fill="#000000">infra&#45;postgres</text>
</g>
<!-- eco&#45;consumer&#45;&gt;infra&#45;postgres -->
<g id="edge10" class="edge">
<title>eco&#45;consumer&#45;&gt;infra&#45;postgres</title>
<path fill="none" stroke="#000000" d="M480.7585,-433.4859C456.5591,-414.9764 425.5594,-384.3684 445,-360 465.9099,-333.7899 552.1754,-319.3123 614.6054,-312.1005"/>
<polygon fill="#000000" stroke="#000000" points="615.2449,-315.5509 624.7948,-310.9628 614.4682,-308.5941 615.2449,-315.5509"/>
</g>
<!-- kafka&#45;&gt;cobalt&#45;infrastructure -->
<g id="edge99" class="edge">
<title>kafka&#45;&gt;cobalt&#45;infrastructure</title>
<path fill="none" stroke="#000000" d="M1756,-215.7623C1756,-191.201 1756,-147.2474 1756,-118.3541"/>
<polygon fill="#000000" stroke="#000000" points="1759.5001,-118.0896 1756,-108.0896 1752.5001,-118.0897 1759.5001,-118.0896"/>
</g>
<!-- http&#45;&gt;cobalt&#45;monitoring -->
<g id="edge157" class="edge">
<title>http&#45;&gt;cobalt&#45;monitoring</title>
<path fill="none" stroke="#000000" d="M2859.7312,-289.2711C2827.3482,-241.1973 2733.8421,-102.3841 2694.6324,-44.176"/>
<polygon fill="#000000" stroke="#000000" points="2697.5285,-42.2105 2689.0388,-35.8721 2691.7228,-46.1213 2697.5285,-42.2105"/>
</g>
<!-- infra&#45;postgres&#45;&gt;cobalt&#45;model -->
<g id="edge108" class="edge">
<title>infra&#45;postgres&#45;&gt;cobalt&#45;model</title>
<path fill="none" stroke="#000000" d="M718.9043,-291.6669C772.3308,-271.5172 874.7208,-235.1428 965,-216 1114.141,-184.3761 1293.0361,-170.5992 1387.687,-165.1559"/>
<polygon fill="#000000" stroke="#000000" points="1387.9046,-168.6493 1397.6924,-164.5936 1387.5118,-161.6603 1387.9046,-168.6493"/>
</g>
<!-- infra&#45;postgres&#45;&gt;domain -->
<g id="edge109" class="edge">
<title>infra&#45;postgres&#45;&gt;domain</title>
<path fill="none" stroke="#000000" d="M741.2995,-304.5987C1037.4607,-297.5559 2349.3761,-265.8178 2531,-252 2564.7936,-249.429 2602.7834,-244.6867 2631.5384,-240.7151"/>
<polygon fill="#000000" stroke="#000000" points="2632.2724,-244.1465 2641.6897,-239.2921 2631.3006,-237.2142 2632.2724,-244.1465"/>
</g>
<!-- infra&#45;postgres&#45;&gt;cobalt&#45;infrastructure -->
<g id="edge107" class="edge">
<title>infra&#45;postgres&#45;&gt;cobalt&#45;infrastructure</title>
<path fill="none" stroke="#000000" d="M695.3682,-288.4477C723.1921,-253.4701 791.247,-175.7198 869,-144 941.118,-114.5791 1451.4077,-97.9725 1663.6987,-92.271"/>
<polygon fill="#000000" stroke="#000000" points="1663.9826,-95.7648 1673.8858,-91.9996 1663.7961,-88.7673 1663.9826,-95.7648"/>
</g>
<!-- infra&#45;monext -->
<g id="node13" class="node">
<title>infra&#45;monext</title>
<ellipse fill="none" stroke="#000000" cx="3392" cy="-378" rx="56.0441" ry="18"/>
<text text-anchor="middle" x="3392" y="-373.8" font-family="Times,serif" font-size="14.00" fill="#000000">infra&#45;monext</text>
</g>
<!-- infra&#45;monext&#45;&gt;cobalt&#45;model -->
<g id="edge16" class="edge">
<title>infra&#45;monext&#45;&gt;cobalt&#45;model</title>
<path fill="none" stroke="#000000" d="M3402.4216,-360.2713C3420.4611,-327.0287 3452.0989,-255.163 3414,-216 3380.2744,-181.3324 1860.8418,-165.6526 1520.9629,-162.5756"/>
<polygon fill="#000000" stroke="#000000" points="1520.8133,-159.0742 1510.7821,-162.4841 1520.7502,-166.074 1520.8133,-159.0742"/>
</g>
<!-- infra&#45;monext&#45;&gt;domain -->
<g id="edge14" class="edge">
<title>infra&#45;monext&#45;&gt;domain</title>
<path fill="none" stroke="#000000" d="M3368.5569,-361.5488C3337.2328,-340.5094 3279.2431,-304.7929 3224,-288 3130.814,-259.6732 2838.4515,-242.1871 2723.7963,-236.2638"/>
<polygon fill="#000000" stroke="#000000" points="2723.7547,-232.7572 2713.5893,-235.7428 2723.3979,-239.7481 2723.7547,-232.7572"/>
</g>
<!-- infra&#45;monext&#45;&gt;cobalt&#45;test -->
<g id="edge17" class="edge">
<title>infra&#45;monext&#45;&gt;cobalt&#45;test</title>
<path fill="none" stroke="#000000" d="M3335.7885,-375.686C3072.6792,-364.8547 1964.484,-319.2343 1699.9018,-308.3424"/>
<polygon fill="#000000" stroke="#000000" points="1699.8888,-304.839 1689.7533,-307.9247 1699.6009,-311.8331 1699.8888,-304.839"/>
</g>
<!-- infra&#45;monext&#45;&gt;cobalt&#45;infrastructure -->
<g id="edge15" class="edge">
<title>infra&#45;monext&#45;&gt;cobalt&#45;infrastructure</title>
<path fill="none" stroke="#000000" d="M3412.349,-360.6921C3422.1183,-351.0244 3432.8088,-338.0995 3438,-324 3444.802,-305.5256 3446.4984,-227.1295 3436,-216 3381.0345,-157.7301 2189.5925,-106.9086 1847.2384,-93.4674"/>
<polygon fill="#000000" stroke="#000000" points="1847.2455,-89.9651 1837.1162,-93.0712 1846.9717,-96.9597 1847.2455,-89.9651"/>
</g>
<!-- infra&#45;monext&#45;&gt;http -->
<g id="edge18" class="edge">
<title>infra&#45;monext&#45;&gt;http</title>
<path fill="none" stroke="#000000" d="M3340.1398,-370.8331C3234.9176,-356.2919 2998.6301,-323.6379 2907.663,-311.0667"/>
<polygon fill="#000000" stroke="#000000" points="2907.9434,-307.5722 2897.5584,-309.6703 2906.9851,-314.5063 2907.9434,-307.5722"/>
</g>
<!-- kafka&#45;warp10 -->
<g id="node14" class="node">
<title>kafka&#45;warp10</title>
<ellipse fill="none" stroke="#000000" cx="2311" cy="-378" rx="59.4252" ry="18"/>
<text text-anchor="middle" x="2311" y="-373.8" font-family="Times,serif" font-size="14.00" fill="#000000">kafka&#45;warp10</text>
</g>
<!-- kafka&#45;warp10&#45;&gt;cobalt&#45;infrastructure -->
<g id="edge20" class="edge">
<title>kafka&#45;warp10&#45;&gt;cobalt&#45;infrastructure</title>
<path fill="none" stroke="#000000" d="M2355.6683,-366.0015C2435.5655,-342.4296 2589.3777,-286.2073 2531,-216 2487.2526,-163.3877 2035.397,-115.7965 1842.5077,-97.714"/>
<polygon fill="#000000" stroke="#000000" points="1842.6882,-94.2157 1832.4063,-96.7719 1842.038,-101.1855 1842.6882,-94.2157"/>
</g>
<!-- kafka&#45;warp10&#45;&gt;kafka -->
<g id="edge19" class="edge">
<title>kafka&#45;warp10&#45;&gt;kafka</title>
<path fill="none" stroke="#000000" d="M2280.9255,-362.2604C2240.9272,-341.9997 2167.5192,-307.1334 2101,-288 1993.1029,-256.9647 1860.7702,-242.5727 1795.8187,-236.9854"/>
<polygon fill="#000000" stroke="#000000" points="1795.8702,-233.4776 1785.6134,-236.1328 1795.2873,-240.4533 1795.8702,-233.4776"/>
</g>
<!-- infra&#45;sendgrid -->
<g id="node15" class="node">
<title>infra&#45;sendgrid</title>
<ellipse fill="none" stroke="#000000" cx="2462" cy="-234" rx="60.4028" ry="18"/>
<text text-anchor="middle" x="2462" y="-229.8" font-family="Times,serif" font-size="14.00" fill="#000000">infra&#45;sendgrid</text>
</g>
<!-- infra&#45;sendgrid&#45;&gt;cobalt&#45;model -->
<g id="edge22" class="edge">
<title>infra&#45;sendgrid&#45;&gt;cobalt&#45;model</title>
<path fill="none" stroke="#000000" d="M2417.2543,-221.7408C2407.6653,-219.501 2397.5462,-217.425 2388,-216 2220.3846,-190.9793 1705.4115,-170.8683 1520.7586,-164.2884"/>
<polygon fill="#000000" stroke="#000000" points="1520.7623,-160.7864 1510.6445,-163.9297 1520.5142,-167.782 1520.7623,-160.7864"/>
</g>
<!-- infra&#45;sendgrid&#45;&gt;cobalt&#45;infrastructure -->
<g id="edge21" class="edge">
<title>infra&#45;sendgrid&#45;&gt;cobalt&#45;infrastructure</title>
<path fill="none" stroke="#000000" d="M2415.4888,-222.3722C2406.3895,-220.1863 2396.9077,-217.9704 2388,-216 2186.3205,-171.3878 1946.8377,-125.5908 1828.967,-103.52"/>
<polygon fill="#000000" stroke="#000000" points="1829.4476,-100.0493 1818.9746,-101.6513 1828.1607,-106.93 1829.4476,-100.0493"/>
</g>
<!-- cassandra&#45;init -->
<g id="node16" class="node">
<title>cassandra&#45;init</title>
<ellipse fill="none" stroke="#000000" cx="701" cy="-378" rx="59.4339" ry="18"/>
<text text-anchor="middle" x="701" y="-373.8" font-family="Times,serif" font-size="14.00" fill="#000000">cassandra&#45;init</text>
</g>
<!-- cassandra&#45;init&#45;&gt;cobalt&#45;model -->
<g id="edge24" class="edge">
<title>cassandra&#45;init&#45;&gt;cobalt&#45;model</title>
<path fill="none" stroke="#000000" d="M745.8162,-366.0351C801.4699,-351.1204 889.9924,-327.1884 897,-324 976.1004,-288.0094 978.6884,-246.6696 1060,-216 1118.7447,-193.8423 1292.8826,-175.9128 1388.8034,-167.3874"/>
<polygon fill="#000000" stroke="#000000" points="1389.313,-170.8561 1398.9677,-166.4931 1388.6994,-163.8831 1389.313,-170.8561"/>
</g>
<!-- cassandra&#45;init&#45;&gt;cobalt&#45;infrastructure -->
<g id="edge23" class="edge">
<title>cassandra&#45;init&#45;&gt;cobalt&#45;infrastructure</title>
<path fill="none" stroke="#000000" d="M726.8242,-361.5581C776.8725,-330.1886 891.2064,-260.9258 994,-216 1087.497,-175.1372 1112.1832,-165.1675 1212,-144 1368.7249,-110.7643 1555.294,-97.8802 1664.2053,-92.9592"/>
<polygon fill="#000000" stroke="#000000" points="1664.6622,-96.4426 1674.4991,-92.5074 1664.3552,-89.4493 1664.6622,-96.4426"/>
</g>
<!-- cassandra&#45;init&#45;&gt;infra&#45;postgres -->
<g id="edge25" class="edge">
<title>cassandra&#45;init&#45;&gt;infra&#45;postgres</title>
<path fill="none" stroke="#000000" d="M696.2055,-359.8314C694.1511,-352.0463 691.704,-342.7729 689.4244,-334.1347"/>
<polygon fill="#000000" stroke="#000000" points="692.7948,-333.1892 686.8591,-324.4133 686.0265,-334.9753 692.7948,-333.1892"/>
</g>
<!-- cre&#45;regen -->
<g id="node17" class="node">
<title>cre&#45;regen</title>
<ellipse fill="none" stroke="#000000" cx="1619" cy="-666" rx="43.4714" ry="18"/>
<text text-anchor="middle" x="1619" y="-661.8" font-family="Times,serif" font-size="14.00" fill="#000000">cre&#45;regen</text>
</g>
<!-- sepa&#45;writer -->
<g id="node18" class="node">
<title>sepa&#45;writer</title>
<ellipse fill="none" stroke="#000000" cx="1404" cy="-594" rx="49.7619" ry="18"/>
<text text-anchor="middle" x="1404" y="-589.8" font-family="Times,serif" font-size="14.00" fill="#000000">sepa&#45;writer</text>
</g>
<!-- cre&#45;regen&#45;&gt;sepa&#45;writer -->
<g id="edge26" class="edge">
<title>cre&#45;regen&#45;&gt;sepa&#45;writer</title>
<path fill="none" stroke="#000000" d="M1584.9326,-654.5914C1548.616,-642.4295 1490.8814,-623.0952 1450.4219,-609.5459"/>
<polygon fill="#000000" stroke="#000000" points="1451.3819,-606.1764 1440.788,-606.3197 1449.159,-612.8141 1451.3819,-606.1764"/>
</g>
<!-- core -->
<g id="node19" class="node">
<title>core</title>
<ellipse fill="none" stroke="#000000" cx="2205" cy="-594" rx="27" ry="18"/>
<text text-anchor="middle" x="2205" y="-589.8" font-family="Times,serif" font-size="14.00" fill="#000000">core</text>
</g>
<!-- cre&#45;regen&#45;&gt;core -->
<g id="edge27" class="edge">
<title>cre&#45;regen&#45;&gt;core</title>
<path fill="none" stroke="#000000" d="M1661.1437,-660.8219C1771.0032,-647.3238 2064.7874,-611.2275 2168.2922,-598.5102"/>
<polygon fill="#000000" stroke="#000000" points="2168.7694,-601.9779 2178.2679,-597.2845 2167.9157,-595.0302 2168.7694,-601.9779"/>
</g>
<!-- sepa&#45;writer&#45;&gt;cobalt&#45;events&#45;model -->
<g id="edge73" class="edge">
<title>sepa&#45;writer&#45;&gt;cobalt&#45;events&#45;model</title>
<path fill="none" stroke="#000000" d="M1355.5402,-589.6228C1281.538,-582.2265 1144.568,-565.5217 1103,-540 1078.5416,-524.9832 1059.8013,-497.6641 1048.2478,-477.0498"/>
<polygon fill="#000000" stroke="#000000" points="1051.2658,-475.2718 1043.4505,-468.1184 1045.0991,-478.5842 1051.2658,-475.2718"/>
</g>
<!-- sepa&#45;writer&#45;&gt;cobalt&#45;model -->
<g id="edge66" class="edge">
<title>sepa&#45;writer&#45;&gt;cobalt&#45;model</title>
<path fill="none" stroke="#000000" d="M1355.2265,-589.7663C1265.1077,-581.7234 1066.5047,-562.9691 900,-540 804.8914,-526.8799 781.8591,-518.8165 687,-504 575.653,-486.6081 546.0271,-492.3861 436,-468 322.593,-442.8648 171.3121,-473.0517 198,-360 218.8672,-271.6052 256.6772,-244.2392 343,-216 441.9097,-183.6432 1161.9795,-167.4902 1386.9976,-163.1944"/>
<polygon fill="#000000" stroke="#000000" points="1387.086,-166.6935 1397.0179,-163.0048 1386.9534,-159.6947 1387.086,-166.6935"/>
</g>
<!-- sepa&#45;writer&#45;&gt;infra&#45;cassandra -->
<g id="edge75" class="edge">
<title>sepa&#45;writer&#45;&gt;infra&#45;cassandra</title>
<path fill="none" stroke="#000000" d="M1450.337,-587.293C1478.8143,-580.5188 1513.1561,-566.9772 1531,-540 1558.0296,-499.1355 1538.198,-439.8007 1522.3797,-405.4323"/>
<polygon fill="#000000" stroke="#000000" points="1525.3463,-403.5248 1517.8615,-396.0262 1519.0365,-406.5557 1525.3463,-403.5248"/>
</g>
<!-- sepa&#45;writer&#45;&gt;domain -->
<g id="edge64" class="edge">
<title>sepa&#45;writer&#45;&gt;domain</title>
<path fill="none" stroke="#000000" d="M1422.5455,-576.9852C1445.4274,-554.5987 1483.1264,-512.8108 1498,-468 1503.0403,-452.8146 1506.0308,-445.8386 1498,-432 1481.8133,-404.1075 1451.1867,-423.8925 1435,-396 1426.9692,-382.1614 1426.444,-373.5202 1435,-360 1454.9866,-328.4172 1550.6978,-296.8932 1587,-288 1790.901,-238.0489 2321.7478,-268.8587 2531,-252 2564.7818,-249.2783 2602.772,-244.5416 2631.5302,-240.6102"/>
<polygon fill="#000000" stroke="#000000" points="2632.2578,-244.0429 2641.6827,-239.2034 2631.297,-237.1091 2632.2578,-244.0429"/>
</g>
<!-- sepa&#45;writer&#45;&gt;cobalt&#45;test -->
<g id="edge69" class="edge">
<title>sepa&#45;writer&#45;&gt;cobalt&#45;test</title>
<path fill="none" stroke="#000000" d="M1354.0872,-591.8502C1237.8323,-586.356 956.5972,-570.0689 927,-540 893.2576,-505.7199 889.0448,-468.8165 920,-432 941.7386,-406.1453 1423.7201,-336.6456 1588.4105,-313.5662"/>
<polygon fill="#000000" stroke="#000000" points="1589.3726,-316.9658 1598.7913,-312.1141 1588.4028,-310.0333 1589.3726,-316.9658"/>
</g>
<!-- sepa&#45;writer&#45;&gt;cobalt&#45;infrastructure -->
<g id="edge70" class="edge">
<title>sepa&#45;writer&#45;&gt;cobalt&#45;infrastructure</title>
<path fill="none" stroke="#000000" d="M1354.3267,-591.5872C1237.6162,-585.6286 936.9057,-568.5907 687,-540 477.9167,-516.0796 420.8638,-527.4895 219,-468 102.8686,-433.776 0,-427.0693 0,-306 0,-306 0,-306 0,-234 0,-187.1222 14.4824,-167.5765 55,-144 124.8608,-103.3493 1318.4056,-92.7372 1663.3448,-90.5133"/>
<polygon fill="#000000" stroke="#000000" points="1663.568,-94.0121 1673.5455,-90.4484 1663.5234,-87.0122 1663.568,-94.0121"/>
</g>
<!-- sepa&#45;writer&#45;&gt;kafka -->
<g id="edge67" class="edge">
<title>sepa&#45;writer&#45;&gt;kafka</title>
<path fill="none" stroke="#000000" d="M1393.4909,-575.9849C1380.2807,-552.1959 1358.3263,-508.5651 1350,-468 1333.1003,-385.666 1336.1302,-331.5801 1408,-288 1459.2212,-256.9408 1635.9207,-241.791 1715.9965,-236.3928"/>
<polygon fill="#000000" stroke="#000000" points="1716.4287,-239.872 1726.1778,-235.7241 1715.9699,-232.8871 1716.4287,-239.872"/>
</g>
<!-- sepa&#45;writer&#45;&gt;http -->
<g id="edge62" class="edge">
<title>sepa&#45;writer&#45;&gt;http</title>
<path fill="none" stroke="#000000" d="M1453.0793,-590.7479C1652.5963,-577.2543 2403.1742,-523.7662 2634,-468 2645.0229,-465.3369 2816.5451,-403.5572 2825,-396 2843.6056,-379.3698 2855.7352,-353.4427 2862.8423,-333.6798"/>
<polygon fill="#000000" stroke="#000000" points="2866.2313,-334.583 2866.1087,-323.9889 2859.5979,-332.3472 2866.2313,-334.583"/>
</g>
<!-- sepa&#45;writer&#45;&gt;kafka&#45;warp10 -->
<g id="edge71" class="edge">
<title>sepa&#45;writer&#45;&gt;kafka&#45;warp10</title>
<path fill="none" stroke="#000000" d="M1453.3367,-590.9288C1567.1733,-583.5298 1845.3678,-563.5743 1936,-540 2065.2012,-506.3935 2207.155,-434.6172 2273.2483,-398.9762"/>
<polygon fill="#000000" stroke="#000000" points="2275.319,-401.8347 2282.4387,-393.9887 2271.9801,-395.6822 2275.319,-401.8347"/>
</g>
<!-- cobalt&#45;events -->
<g id="node28" class="node">
<title>cobalt&#45;events</title>
<ellipse fill="none" stroke="#000000" cx="1293" cy="-522" rx="57.0047" ry="18"/>
<text text-anchor="middle" x="1293" y="-517.8" font-family="Times,serif" font-size="14.00" fill="#000000">cobalt&#45;events</text>
</g>
<!-- sepa&#45;writer&#45;&gt;cobalt&#45;events -->
<g id="edge74" class="edge">
<title>sepa&#45;writer&#45;&gt;cobalt&#45;events</title>
<path fill="none" stroke="#000000" d="M1379.6406,-578.1993C1364.098,-568.1176 1343.7378,-554.911 1326.6601,-543.8336"/>
<polygon fill="#000000" stroke="#000000" points="1328.366,-540.7683 1318.0717,-538.2627 1324.5566,-546.6411 1328.366,-540.7683"/>
</g>
<!-- monitoring -->
<g id="node29" class="node">
<title>monitoring</title>
<ellipse fill="none" stroke="#000000" cx="2033" cy="-378" rx="49.3205" ry="18"/>
<text text-anchor="middle" x="2033" y="-373.8" font-family="Times,serif" font-size="14.00" fill="#000000">monitoring</text>
</g>
<!-- sepa&#45;writer&#45;&gt;monitoring -->
<g id="edge68" class="edge">
<title>sepa&#45;writer&#45;&gt;monitoring</title>
<path fill="none" stroke="#000000" d="M1447.0656,-584.6567C1527.7802,-566.536 1706.6905,-523.4743 1851,-468 1903.4025,-447.8559 1961.0461,-417.9415 1997.1266,-398.2107"/>
<polygon fill="#000000" stroke="#000000" points="1999.1921,-401.069 2006.2636,-393.1794 1995.8156,-394.9372 1999.1921,-401.069"/>
</g>
<!-- sepa&#45;schema -->
<g id="node31" class="node">
<title>sepa&#45;schema</title>
<ellipse fill="none" stroke="#000000" cx="1873" cy="-378" rx="55.0664" ry="18"/>
<text text-anchor="middle" x="1873" y="-373.8" font-family="Times,serif" font-size="14.00" fill="#000000">sepa&#45;schema</text>
</g>
<!-- sepa&#45;writer&#45;&gt;sepa&#45;schema -->
<g id="edge63" class="edge">
<title>sepa&#45;writer&#45;&gt;sepa&#45;schema</title>
<path fill="none" stroke="#000000" d="M1354.2239,-592.7514C1211.9627,-587.6073 821.5083,-561.6098 944,-432 968.3463,-406.2389 1545.6163,-398.0904 1581,-396 1659.2028,-391.3799 1749.1685,-385.7929 1808.335,-382.0813"/>
<polygon fill="#000000" stroke="#000000" points="1808.889,-385.5535 1818.65,-381.4336 1808.4503,-378.5672 1808.889,-385.5535"/>
</g>
<!-- cre&#45;model -->
<g id="node32" class="node">
<title>cre&#45;model</title>
<ellipse fill="none" stroke="#000000" cx="1181" cy="-450" rx="45.9028" ry="18"/>
<text text-anchor="middle" x="1181" y="-445.8" font-family="Times,serif" font-size="14.00" fill="#000000">cre&#45;model</text>
</g>
<!-- sepa&#45;writer&#45;&gt;cre&#45;model -->
<g id="edge65" class="edge">
<title>sepa&#45;writer&#45;&gt;cre&#45;model</title>
<path fill="none" stroke="#000000" d="M1356.545,-587.9464C1301.4668,-579.9087 1215.4317,-563.8866 1194,-540 1179.2332,-523.5417 1176.7334,-498.1521 1177.4978,-478.5309"/>
<polygon fill="#000000" stroke="#000000" points="1181.0058,-478.5338 1178.2012,-468.317 1174.0224,-478.0529 1181.0058,-478.5338"/>
</g>
<!-- data&#45;science -->
<g id="node33" class="node">
<title>data&#45;science</title>
<ellipse fill="none" stroke="#000000" cx="1873" cy="-522" rx="53.604" ry="18"/>
<text text-anchor="middle" x="1873" y="-517.8" font-family="Times,serif" font-size="14.00" fill="#000000">data&#45;science</text>
</g>
<!-- sepa&#45;writer&#45;&gt;data&#45;science -->
<g id="edge72" class="edge">
<title>sepa&#45;writer&#45;&gt;data&#45;science</title>
<path fill="none" stroke="#000000" d="M1450.4613,-587.3998C1519.5497,-577.5147 1653.4271,-558.0886 1767,-540 1782.6508,-537.5073 1799.5795,-534.6882 1815.2171,-532.0333"/>
<polygon fill="#000000" stroke="#000000" points="1816.0109,-535.4486 1825.2804,-530.3175 1814.8343,-528.5481 1816.0109,-535.4486"/>
</g>
<!-- core&#45;&gt;cobalt&#45;events&#45;model -->
<g id="edge145" class="edge">
<title>core&#45;&gt;cobalt&#45;events&#45;model</title>
<path fill="none" stroke="#000000" d="M2177.8546,-593.2929C2026.5659,-589.2535 1290.8027,-568.2786 1194,-540 1145.8533,-525.9351 1096.5194,-494.9057 1065.8359,-473.2365"/>
<polygon fill="#000000" stroke="#000000" points="1067.8583,-470.3799 1057.6927,-467.3948 1063.778,-476.0677 1067.8583,-470.3799"/>
</g>
<!-- core&#45;&gt;cobalt&#45;model -->
<g id="edge137" class="edge">
<title>core&#45;&gt;cobalt&#45;model</title>
<path fill="none" stroke="#000000" d="M2225.8622,-582.3991C2284.2743,-548.4407 2441.2222,-446.2029 2379,-360 2277.6075,-219.5303 1715.0965,-176.1119 1520.3657,-165.1844"/>
<polygon fill="#000000" stroke="#000000" points="1520.4482,-161.6837 1510.2709,-164.6286 1520.0634,-168.6731 1520.4482,-161.6837"/>
</g>
<!-- core&#45;&gt;infra&#45;cassandra -->
<g id="edge131" class="edge">
<title>core&#45;&gt;infra&#45;cassandra</title>
<path fill="none" stroke="#000000" d="M2177.9095,-591.8792C2100.2391,-585.5504 1878.003,-565.6366 1810,-540 1728.6832,-509.3442 1724.1688,-471.9647 1647,-432 1619.0522,-417.5262 1586.3017,-404.6213 1559.6127,-395.0593"/>
<polygon fill="#000000" stroke="#000000" points="1560.6691,-391.7206 1550.0743,-391.691 1558.3382,-398.3212 1560.6691,-391.7206"/>
</g>
<!-- core&#45;&gt;domain -->
<g id="edge129" class="edge">
<title>core&#45;&gt;domain</title>
<path fill="none" stroke="#000000" d="M2232.1372,-593.8092C2343.3789,-592.7293 2764.4282,-585.6468 2888,-540 2939.0352,-521.1478 2958.7112,-514.473 2987,-468 3029.6114,-397.9977 3015.7308,-332.6332 2947,-288 2910.6569,-264.3991 2790.3705,-247.1428 2723.2672,-239.0817"/>
<polygon fill="#000000" stroke="#000000" points="2723.3165,-235.5633 2712.9752,-237.8673 2722.4961,-242.5151 2723.3165,-235.5633"/>
</g>
<!-- core&#45;&gt;cobalt&#45;test -->
<g id="edge142" class="edge">
<title>core&#45;&gt;cobalt&#45;test</title>
<path fill="none" stroke="#000000" d="M2202.1555,-575.9075C2194.0357,-530.8863 2166.2821,-413.5978 2091,-360 2059.6699,-337.6942 1812.8037,-317.8353 1699.4979,-309.794"/>
<polygon fill="#000000" stroke="#000000" points="1699.5083,-306.2861 1689.2873,-309.0757 1699.017,-313.2689 1699.5083,-306.2861"/>
</g>
<!-- core&#45;&gt;cobalt&#45;infrastructure -->
<g id="edge130" class="edge">
<title>core&#45;&gt;cobalt&#45;infrastructure</title>
<path fill="none" stroke="#000000" d="M2232.1865,-592.9151C2347.6807,-588.1645 2798.0626,-568.17 2937,-540 3083.6979,-510.2566 3111.0387,-469.2982 3256,-432 3299.9461,-420.6928 3427.8788,-430.8004 3457,-396 3483.0471,-364.8733 3551.451,-331.7227 3453,-216 3342.4651,-86.0735 3245.4611,-163.5396 3076,-144 2837.6645,-116.5188 2107.3353,-97.8906 1848.3012,-91.9986"/>
<polygon fill="#000000" stroke="#000000" points="1848.2507,-88.4967 1838.174,-91.7693 1848.0922,-95.4949 1848.2507,-88.4967"/>
</g>
<!-- core&#45;&gt;cobalt&#45;monitoring -->
<g id="edge128" class="edge">
<title>core&#45;&gt;cobalt&#45;monitoring</title>
<path fill="none" stroke="#000000" d="M2232.0132,-593.019C2354.3425,-588.4502 2857.1171,-568.2773 3012,-540 3229.0118,-500.3797 3283.2123,-480.4657 3487,-396 3612.2737,-344.0767 3686.32,-368.3367 3756,-252 3784.4393,-204.5183 3742.7935,-170.1248 3694,-144 3532.7372,-57.6575 2974.3623,-28.7277 2760.8857,-20.6862"/>
<polygon fill="#000000" stroke="#000000" points="2760.8008,-17.1807 2750.678,-20.3077 2760.5414,-24.1759 2760.8008,-17.1807"/>
</g>
<!-- core&#45;&gt;kafka -->
<g id="edge138" class="edge">
<title>core&#45;&gt;kafka</title>
<path fill="none" stroke="#000000" d="M2232.2981,-593.7443C2338.5792,-592.4317 2724.3859,-584.6269 2837,-540 2931.9865,-502.3586 3019.4252,-454.2601 2980,-360 2962.416,-317.959 2948.7443,-306.2771 2907,-288 2855.0984,-265.2757 1993.4107,-240.4751 1796.0505,-235.0752"/>
<polygon fill="#000000" stroke="#000000" points="1795.9324,-231.5708 1785.8408,-234.797 1795.7417,-238.5682 1795.9324,-231.5708"/>
</g>
<!-- core&#45;&gt;http -->
<g id="edge132" class="edge">
<title>core&#45;&gt;http</title>
<path fill="none" stroke="#000000" d="M2232.1279,-592.7619C2330.2383,-588.0738 2666.2327,-570.1342 2769,-540 2836.1416,-520.3122 2872.5541,-527.7269 2909,-468 2935.4086,-424.722 2907.7495,-364.6463 2887.7432,-331.1437"/>
<polygon fill="#000000" stroke="#000000" points="2890.5928,-329.0971 2882.3547,-322.435 2884.6401,-332.7804 2890.5928,-329.0971"/>
</g>
<!-- core&#45;&gt;infra&#45;postgres -->
<g id="edge134" class="edge">
<title>core&#45;&gt;infra&#45;postgres</title>
<path fill="none" stroke="#000000" d="M2181.7307,-584.7527C2159.7014,-575.3666 2126.3228,-559.467 2101,-540 2079.5495,-523.5099 1961.5088,-371.4617 1937,-360 1883.0515,-334.7707 1007.1662,-313.2748 751.5248,-307.5146"/>
<polygon fill="#000000" stroke="#000000" points="751.3315,-304.0095 741.2555,-307.2842 751.1744,-311.0077 751.3315,-304.0095"/>
</g>
<!-- core&#45;&gt;kafka&#45;warp10 -->
<g id="edge143" class="edge">
<title>core&#45;&gt;kafka&#45;warp10</title>
<path fill="none" stroke="#000000" d="M2213.4952,-576.6889C2231.8945,-539.196 2275.548,-450.2419 2297.6647,-405.1739"/>
<polygon fill="#000000" stroke="#000000" points="2300.9033,-406.519 2302.1668,-395.9997 2294.6192,-403.4351 2300.9033,-406.519"/>
</g>
<!-- core&#45;&gt;infra&#45;sendgrid -->
<g id="edge133" class="edge">
<title>core&#45;&gt;infra&#45;sendgrid</title>
<path fill="none" stroke="#000000" d="M2230.4125,-587.4569C2259.8779,-579.1835 2309.2287,-563.1674 2347,-540 2407.8829,-502.6569 2408.6565,-474.5789 2466,-432 2490.968,-413.4606 2510.6779,-423.0618 2526,-396 2551.8224,-350.3927 2513.3479,-292.2881 2485.7996,-259.5109"/>
<polygon fill="#000000" stroke="#000000" points="2488.2687,-257.0156 2479.077,-251.7464 2482.9766,-261.5975 2488.2687,-257.0156"/>
</g>
<!-- core&#45;&gt;cobalt&#45;events -->
<g id="edge146" class="edge">
<title>core&#45;&gt;cobalt&#45;events</title>
<path fill="none" stroke="#000000" d="M2177.7057,-591.8452C2053.7912,-582.0625 1542.3088,-541.6823 1358.8583,-527.1993"/>
<polygon fill="#000000" stroke="#000000" points="1359.0547,-523.704 1348.8103,-526.4061 1358.5037,-530.6823 1359.0547,-523.704"/>
</g>
<!-- core&#45;&gt;monitoring -->
<g id="edge139" class="edge">
<title>core&#45;&gt;monitoring</title>
<path fill="none" stroke="#000000" d="M2185.0615,-581.7083C2169.8944,-571.717 2149.1253,-556.5973 2134,-540 2095.5977,-497.8603 2063.201,-439.2063 2046.0783,-405.2584"/>
<polygon fill="#000000" stroke="#000000" points="2049.0463,-403.366 2041.463,-395.967 2042.7771,-406.4801 2049.0463,-403.366"/>
</g>
<!-- core&#45;&gt;sepa&#45;schema -->
<g id="edge135" class="edge">
<title>core&#45;&gt;sepa&#45;schema</title>
<path fill="none" stroke="#000000" d="M2178.1677,-591.0732C2139.8581,-585.8843 2068.4388,-572.3879 2017,-540 1960.4901,-504.4191 1913.1292,-440.3213 1889.388,-404.3407"/>
<polygon fill="#000000" stroke="#000000" points="1892.248,-402.3183 1883.8698,-395.8333 1886.3753,-406.1276 1892.248,-402.3183"/>
</g>
<!-- core&#45;&gt;cre&#45;model -->
<g id="edge136" class="edge">
<title>core&#45;&gt;cre&#45;model</title>
<path fill="none" stroke="#000000" d="M2177.8028,-593.2601C2023.9338,-588.979 1267.9594,-566.6442 1227,-540 1205.5106,-526.0211 1193.5673,-498.6864 1187.2731,-477.7923"/>
<polygon fill="#000000" stroke="#000000" points="1190.6451,-476.8541 1184.6199,-468.1393 1183.8954,-478.7093 1190.6451,-476.8541"/>
</g>
<!-- core&#45;&gt;data&#45;science -->
<g id="edge144" class="edge">
<title>core&#45;&gt;data&#45;science</title>
<path fill="none" stroke="#000000" d="M2179.2248,-588.4102C2125.5319,-576.7659 2000.6678,-549.687 1928.0502,-533.9386"/>
<polygon fill="#000000" stroke="#000000" points="1928.6777,-530.4934 1918.1631,-531.7944 1927.1941,-537.3344 1928.6777,-530.4934"/>
</g>
<!-- sepa&#45;reconciliation -->
<g id="node34" class="node">
<title>sepa&#45;reconciliation</title>
<ellipse fill="none" stroke="#000000" cx="2823" cy="-450" rx="77.2658" ry="18"/>
<text text-anchor="middle" x="2823" y="-445.8" font-family="Times,serif" font-size="14.00" fill="#000000">sepa&#45;reconciliation</text>
</g>
<!-- core&#45;&gt;sepa&#45;reconciliation -->
<g id="edge140" class="edge">
<title>core&#45;&gt;sepa&#45;reconciliation</title>
<path fill="none" stroke="#000000" d="M2232.0093,-593.5814C2326.5712,-591.7568 2641.8612,-582.5449 2732,-540 2762.2004,-525.7456 2788.3051,-497.2084 2804.7141,-476.0716"/>
<polygon fill="#000000" stroke="#000000" points="2807.7126,-477.9079 2810.9297,-467.8133 2802.1197,-473.6984 2807.7126,-477.9079"/>
</g>
<!-- connector -->
<g id="node36" class="node">
<title>connector</title>
<ellipse fill="none" stroke="#000000" cx="2520" cy="-450" rx="44.9423" ry="18"/>
<text text-anchor="middle" x="2520" y="-445.8" font-family="Times,serif" font-size="14.00" fill="#000000">connector</text>
</g>
<!-- core&#45;&gt;connector -->
<g id="edge147" class="edge">
<title>core&#45;&gt;connector</title>
<path fill="none" stroke="#000000" d="M2232.0543,-591.6817C2274.8767,-587.081 2359.8816,-574.1057 2423,-540 2453.3318,-523.6103 2481.4371,-495.5061 2499.5019,-475.0552"/>
<polygon fill="#000000" stroke="#000000" points="2502.2595,-477.2169 2506.1468,-467.3609 2496.9617,-472.6416 2502.2595,-477.2169"/>
</g>
<!-- infra&#45;redis -->
<g id="node38" class="node">
<title>infra&#45;redis</title>
<ellipse fill="none" stroke="#000000" cx="2701" cy="-378" rx="46.8719" ry="18"/>
<text text-anchor="middle" x="2701" y="-373.8" font-family="Times,serif" font-size="14.00" fill="#000000">infra&#45;redis</text>
</g>
<!-- core&#45;&gt;infra&#45;redis -->
<g id="edge141" class="edge">
<title>core&#45;&gt;infra&#45;redis</title>
<path fill="none" stroke="#000000" d="M2231.9754,-591.4564C2279.5356,-586.2878 2380.7655,-572.1998 2460,-540 2515.5167,-517.4388 2524.2023,-501.3362 2574,-468 2607.6933,-445.4445 2645.5167,-418.413 2671.0553,-399.9"/>
<polygon fill="#000000" stroke="#000000" points="2673.1885,-402.6764 2679.2215,-393.967 2669.074,-397.0132 2673.1885,-402.6764"/>
</g>
<!-- root -->
<g id="node20" class="node">
<title>root</title>
<ellipse fill="none" stroke="#000000" cx="1817" cy="-810" rx="27" ry="18"/>
<text text-anchor="middle" x="1817" y="-805.8" font-family="Times,serif" font-size="14.00" fill="#000000">root</text>
</g>
<!-- root&#45;&gt;eco&#45;consumer -->
<g id="edge42" class="edge">
<title>root&#45;&gt;eco&#45;consumer</title>
<path fill="none" stroke="#000000" d="M1789.921,-809.5449C1613.7959,-806.4942 636.503,-788.1557 583,-756 543.2124,-732.0874 530,-712.4205 530,-666 530,-666 530,-666 530,-594 530,-553.0964 520.087,-506.6076 512.7454,-477.7868"/>
<polygon fill="#000000" stroke="#000000" points="516.1037,-476.7952 510.18,-468.0111 509.333,-478.572 516.1037,-476.7952"/>
</g>
<!-- root&#45;&gt;kafka -->
<g id="edge32" class="edge">
<title>root&#45;&gt;kafka</title>
<path fill="none" stroke="#000000" d="M1844.0176,-809.6122C2041.4375,-806.7094 3258.5073,-787.6215 3419,-756 3579.4136,-724.3941 3766.2026,-647.0329 3687,-504 3628.5761,-398.4916 3570.3,-401.334 3457,-360 3241.9496,-281.5455 3174.9298,-309.2081 2947,-288 2716.0113,-266.5073 1976.3812,-241.2509 1795.9695,-235.3008"/>
<polygon fill="#000000" stroke="#000000" points="1795.9718,-231.7991 1785.8621,-234.9684 1795.7416,-238.7953 1795.9718,-231.7991"/>
</g>
<!-- root&#45;&gt;http -->
<g id="edge30" class="edge">
<title>root&#45;&gt;http</title>
<path fill="none" stroke="#000000" d="M1844.1389,-809.5895C2033.5247,-806.6493 3154.3437,-787.9868 3302,-756 3463.1855,-721.0824 3553.3599,-749.7838 3644,-612 3733.0687,-476.6051 3071.0306,-343.2798 2907.1231,-312.5824"/>
<polygon fill="#000000" stroke="#000000" points="2907.532,-309.0985 2897.0605,-310.7099 2906.2514,-315.9804 2907.532,-309.0985"/>
</g>
<!-- root&#45;&gt;infra&#45;postgres -->
<g id="edge43" class="edge">
<title>root&#45;&gt;infra&#45;postgres</title>
<path fill="none" stroke="#000000" d="M1789.7963,-809.6511C1615.8461,-807.3144 662.6952,-792.8934 539,-756 464.1317,-733.6697 388,-744.1275 388,-666 388,-666 388,-666 388,-450 388,-404.8741 399.1412,-387.3951 435,-360 463.0023,-338.607 553.0417,-322.807 616.2843,-313.9997"/>
<polygon fill="#000000" stroke="#000000" points="617.1473,-317.4144 626.582,-312.594 616.2005,-310.4787 617.1473,-317.4144"/>
</g>
<!-- root&#45;&gt;sepa&#45;writer -->
<g id="edge33" class="edge">
<title>root&#45;&gt;sepa&#45;writer</title>
<path fill="none" stroke="#000000" d="M1790.8877,-805.1731C1711.3015,-789.9439 1474.0894,-740.555 1423,-684 1408.0064,-667.4024 1403.7319,-642.026 1402.9355,-622.4452"/>
<polygon fill="#000000" stroke="#000000" points="1406.4329,-622.21 1402.8048,-612.2558 1399.4334,-622.2999 1406.4329,-622.21"/>
</g>
<!-- root&#45;&gt;core -->
<g id="edge31" class="edge">
<title>root&#45;&gt;core</title>
<path fill="none" stroke="#000000" d="M1836.1048,-797.2312C1863.227,-779.2763 1914.6449,-745.8707 1960,-720 2035.4052,-676.9886 2127.0366,-631.6324 2173.985,-608.8753"/>
<polygon fill="#000000" stroke="#000000" points="2175.5522,-612.0053 2183.0322,-604.5018 2172.5056,-605.703 2175.5522,-612.0053"/>
</g>
<!-- sab&#45;cobalt&#45;reconciliation -->
<g id="node21" class="node">
<title>sab&#45;cobalt&#45;reconciliation</title>
<ellipse fill="none" stroke="#000000" cx="723" cy="-450" rx="98.0207" ry="18"/>
<text text-anchor="middle" x="723" y="-445.8" font-family="Times,serif" font-size="14.00" fill="#000000">sab&#45;cobalt&#45;reconciliation</text>
</g>
<!-- root&#45;&gt;sab&#45;cobalt&#45;reconciliation -->
<g id="edge34" class="edge">
<title>root&#45;&gt;sab&#45;cobalt&#45;reconciliation</title>
<path fill="none" stroke="#000000" d="M1789.8076,-809.6334C1613.1001,-806.9029 635,-786.353 635,-666 635,-666 635,-666 635,-594 635,-546.8006 669.8483,-501.9807 695.6856,-475.2367"/>
<polygon fill="#000000" stroke="#000000" points="698.4551,-477.4158 703.0314,-467.8603 693.495,-472.4764 698.4551,-477.4158"/>
</g>
<!-- sepa&#45;parser -->
<g id="node22" class="node">
<title>sepa&#45;parser</title>
<ellipse fill="none" stroke="#000000" cx="1792" cy="-450" rx="50.2379" ry="18"/>
<text text-anchor="middle" x="1792" y="-445.8" font-family="Times,serif" font-size="14.00" fill="#000000">sepa&#45;parser</text>
</g>
<!-- root&#45;&gt;sepa&#45;parser -->
<g id="edge35" class="edge">
<title>root&#45;&gt;sepa&#45;parser</title>
<path fill="none" stroke="#000000" d="M1798.2916,-796.3698C1768.8451,-773.1795 1715,-722.9836 1715,-666 1715,-666 1715,-666 1715,-594 1715,-547.7546 1746.2645,-501.9762 1768.9496,-474.8469"/>
<polygon fill="#000000" stroke="#000000" points="1771.7947,-476.9069 1775.6703,-467.0463 1766.4915,-472.3378 1771.7947,-476.9069"/>
</g>
<!-- tools -->
<g id="node23" class="node">
<title>tools</title>
<ellipse fill="none" stroke="#000000" cx="3205" cy="-738" rx="27.113" ry="18"/>
<text text-anchor="middle" x="3205" y="-733.8" font-family="Times,serif" font-size="14.00" fill="#000000">tools</text>
</g>
<!-- root&#45;&gt;tools -->
<g id="edge36" class="edge">
<title>root&#45;&gt;tools</title>
<path fill="none" stroke="#000000" d="M1844.1035,-808.5941C2017.1717,-799.6165 2966.7985,-750.3563 3167.6684,-739.9365"/>
<polygon fill="#000000" stroke="#000000" points="3167.9175,-743.4284 3177.7228,-739.415 3167.5549,-736.4378 3167.9175,-743.4284"/>
</g>
<!-- card -->
<g id="node24" class="node">
<title>card</title>
<ellipse fill="none" stroke="#000000" cx="3441" cy="-666" rx="27" ry="18"/>
<text text-anchor="middle" x="3441" y="-661.8" font-family="Times,serif" font-size="14.00" fill="#000000">card</text>
</g>
<!-- root&#45;&gt;card -->
<g id="edge37" class="edge">
<title>root&#45;&gt;card</title>
<path fill="none" stroke="#000000" d="M1844.2112,-809.5953C2029.3072,-806.7598 3100.2453,-789.013 3241,-756 3305.2468,-740.9314 3374.1695,-705.0159 3411.9906,-683.3867"/>
<polygon fill="#000000" stroke="#000000" points="3414.0159,-686.2583 3420.9142,-678.2169 3410.5069,-680.2013 3414.0159,-686.2583"/>
</g>
<!-- psd2&#45;app -->
<g id="node25" class="node">
<title>psd2&#45;app</title>
<ellipse fill="none" stroke="#000000" cx="2205" cy="-666" rx="42.5542" ry="18"/>
<text text-anchor="middle" x="2205" y="-661.8" font-family="Times,serif" font-size="14.00" fill="#000000">psd2&#45;app</text>
</g>
<!-- root&#45;&gt;psd2&#45;app -->
<g id="edge38" class="edge">
<title>root&#45;&gt;psd2&#45;app</title>
<path fill="none" stroke="#000000" d="M1840.6871,-801.2089C1904.7987,-777.4149 2082.3372,-711.5244 2163.5206,-681.3944"/>
<polygon fill="#000000" stroke="#000000" points="2164.7719,-684.6634 2172.9292,-677.9026 2162.3362,-678.1008 2164.7719,-684.6634"/>
</g>
<!-- postgres&#45;lock -->
<g id="node26" class="node">
<title>postgres&#45;lock</title>
<ellipse fill="none" stroke="#000000" cx="836" cy="-378" rx="57.5065" ry="18"/>
<text text-anchor="middle" x="836" y="-373.8" font-family="Times,serif" font-size="14.00" fill="#000000">postgres&#45;lock</text>
</g>
<!-- root&#45;&gt;postgres&#45;lock -->
<g id="edge39" class="edge">
<title>root&#45;&gt;postgres&#45;lock</title>
<path fill="none" stroke="#000000" d="M1789.9282,-809.6487C1630.4394,-807.4503 816.8219,-794.4119 713,-756 651.8011,-733.3577 597,-731.2532 597,-666 597,-666 597,-666 597,-522 597,-481.1184 587.4272,-461.2387 616,-432 664.8242,-382.038 701.2593,-413.0645 769,-396 773.3889,-394.8944 777.9331,-393.7255 782.4922,-392.5358"/>
<polygon fill="#000000" stroke="#000000" points="783.6642,-395.8465 792.4426,-389.9143 781.8809,-389.0775 783.6642,-395.8465"/>
</g>
<!-- cobalt&#45;exploitation -->
<g id="node27" class="node">
<title>cobalt&#45;exploitation</title>
<ellipse fill="none" stroke="#000000" cx="2342" cy="-666" rx="76.8071" ry="18"/>
<text text-anchor="middle" x="2342" y="-661.8" font-family="Times,serif" font-size="14.00" fill="#000000">cobalt&#45;exploitation</text>
</g>
<!-- root&#45;&gt;cobalt&#45;exploitation -->
<g id="edge40" class="edge">
<title>root&#45;&gt;cobalt&#45;exploitation</title>
<path fill="none" stroke="#000000" d="M1842.3434,-803.6172C1881.5626,-793.6955 1959.295,-773.8538 2025,-756 2115.6597,-731.3654 2220.4475,-701.3024 2283.9337,-682.9117"/>
<polygon fill="#000000" stroke="#000000" points="2285.1299,-686.2091 2293.7598,-680.063 2283.1806,-679.486 2285.1299,-686.2091"/>
</g>
<!-- root&#45;&gt;cobalt&#45;events -->
<g id="edge41" class="edge">
<title>root&#45;&gt;cobalt&#45;events</title>
<path fill="none" stroke="#000000" d="M1789.9682,-807.8253C1719.5623,-801.829 1532.1687,-783.6504 1477,-756 1387.8035,-711.2951 1328.4954,-600.9378 1304.7234,-549.3735"/>
<polygon fill="#000000" stroke="#000000" points="1307.874,-547.8459 1300.5715,-540.1696 1301.4932,-550.7243 1307.874,-547.8459"/>
</g>
<!-- sab&#45;cobalt&#45;reconciliation&#45;&gt;cobalt&#45;model -->
<g id="edge112" class="edge">
<title>sab&#45;cobalt&#45;reconciliation&#45;&gt;cobalt&#45;model</title>
<path fill="none" stroke="#000000" d="M641.8401,-439.8683C619.838,-437.211 596.0156,-434.4152 574,-432 533.4907,-427.556 236.3655,-426.1974 209,-396 198.2559,-384.144 200.3203,-373.4411 209,-360 293.3846,-229.3241 376.947,-253.1474 528,-216 691.0684,-175.8977 1203.0247,-165.2965 1387.1795,-162.7445"/>
<polygon fill="#000000" stroke="#000000" points="1387.3162,-166.2431 1397.268,-162.6083 1387.2216,-159.2437 1387.3162,-166.2431"/>
</g>
<!-- sab&#45;cobalt&#45;reconciliation&#45;&gt;infra&#45;cassandra -->
<g id="edge114" class="edge">
<title>sab&#45;cobalt&#45;reconciliation&#45;&gt;infra&#45;cassandra</title>
<path fill="none" stroke="#000000" d="M810.0376,-441.5706C841.8081,-438.5191 878.0266,-435.0698 911,-432 1100.6634,-414.3427 1324.3018,-394.3299 1436.3758,-384.3563"/>
<polygon fill="#000000" stroke="#000000" points="1436.891,-387.8244 1446.5415,-383.4519 1436.2707,-380.8519 1436.891,-387.8244"/>
</g>
<!-- sab&#45;cobalt&#45;reconciliation&#45;&gt;cobalt&#45;infrastructure -->
<g id="edge110" class="edge">
<title>sab&#45;cobalt&#45;reconciliation&#45;&gt;cobalt&#45;infrastructure</title>
<path fill="none" stroke="#000000" d="M641.8447,-439.8262C619.8426,-437.1689 596.0191,-434.3837 574,-432 490.5499,-422.9658 273.2995,-433.0879 198,-396 148.9154,-371.824 114,-360.7154 114,-306 114,-306 114,-306 114,-234 114,-6.8941 391.3225,-169.4309 617,-144 819.0766,-121.2286 1430.3756,-100.228 1663.9306,-92.8218"/>
<polygon fill="#000000" stroke="#000000" points="1664.2094,-96.3148 1674.0938,-92.5005 1663.9882,-89.3183 1664.2094,-96.3148"/>
</g>
<!-- sab&#45;cobalt&#45;reconciliation&#45;&gt;kafka -->
<g id="edge111" class="edge">
<title>sab&#45;cobalt&#45;reconciliation&#45;&gt;kafka</title>
<path fill="none" stroke="#000000" d="M774.6394,-434.6614C810.6453,-423.929 859.7861,-409.2066 903,-396 1057.4669,-348.7933 1091.8308,-320.7261 1250,-288 1421.0824,-252.6021 1629.7873,-239.6695 1715.9042,-235.617"/>
<polygon fill="#000000" stroke="#000000" points="1716.1982,-239.1073 1726.0283,-235.1552 1715.8792,-232.1145 1716.1982,-239.1073"/>
</g>
<!-- sab&#45;cobalt&#45;reconciliation&#45;&gt;http -->
<g id="edge113" class="edge">
<title>sab&#45;cobalt&#45;reconciliation&#45;&gt;http</title>
<path fill="none" stroke="#000000" d="M797.8633,-438.3283C927.3545,-418.6356 1201.6977,-379.0944 1435,-360 1989.7428,-314.5975 2668.2152,-307.3179 2833.4341,-306.1967"/>
<polygon fill="#000000" stroke="#000000" points="2833.5906,-309.6959 2843.5678,-306.1315 2833.5454,-302.6961 2833.5906,-309.6959"/>
</g>
<!-- sepa&#45;parser&#45;&gt;cobalt&#45;model -->
<g id="edge165" class="edge">
<title>sepa&#45;parser&#45;&gt;cobalt&#45;model</title>
<path fill="none" stroke="#000000" d="M1764.7745,-434.8466C1730.2966,-415.9821 1668.7726,-383.3975 1614,-360 1569.7907,-341.1149 1549.0461,-354.6382 1512,-324 1471.667,-290.6434 1459.3744,-227.0648 1455.6326,-190.2558"/>
<polygon fill="#000000" stroke="#000000" points="1459.1107,-189.8511 1454.7558,-180.1927 1452.1372,-190.4588 1459.1107,-189.8511"/>
</g>
<!-- sepa&#45;parser&#45;&gt;infra&#45;cassandra -->
<g id="edge171" class="edge">
<title>sepa&#45;parser&#45;&gt;infra&#45;cassandra</title>
<path fill="none" stroke="#000000" d="M1752.4538,-438.6544C1744.3768,-436.4001 1735.9249,-434.0864 1728,-432 1673.7254,-417.7109 1611.5965,-402.5722 1567.2359,-391.9715"/>
<polygon fill="#000000" stroke="#000000" points="1568.026,-388.5618 1557.4869,-389.6465 1566.4021,-395.3709 1568.026,-388.5618"/>
</g>
<!-- sepa&#45;parser&#45;&gt;cobalt&#45;test -->
<g id="edge169" class="edge">
<title>sepa&#45;parser&#45;&gt;cobalt&#45;test</title>
<path fill="none" stroke="#000000" d="M1774.3226,-432.9158C1747.8866,-407.3669 1697.9488,-359.1048 1667.8522,-330.0182"/>
<polygon fill="#000000" stroke="#000000" points="1670.2774,-327.4946 1660.6544,-323.0619 1665.4128,-332.5281 1670.2774,-327.4946"/>
</g>
<!-- sepa&#45;parser&#45;&gt;cobalt&#45;infrastructure -->
<g id="edge168" class="edge">
<title>sepa&#45;parser&#45;&gt;cobalt&#45;infrastructure</title>
<path fill="none" stroke="#000000" d="M1745.2878,-442.8687C1707.6231,-435.5272 1654.4509,-421.4565 1614,-396 1595.6298,-384.4393 1599.1069,-371.9687 1581,-360 1540.8955,-333.4908 1516.5841,-353.9758 1479,-324 1408.918,-268.1049 1329.395,-211.8322 1388,-144 1406.1039,-123.0457 1565.1756,-105.9274 1668.1701,-96.9127"/>
<polygon fill="#000000" stroke="#000000" points="1668.6043,-100.3883 1678.2653,-96.0393 1668.0008,-93.4144 1668.6043,-100.3883"/>
</g>
<!-- sepa&#45;parser&#45;&gt;kafka -->
<g id="edge166" class="edge">
<title>sepa&#45;parser&#45;&gt;kafka</title>
<path fill="none" stroke="#000000" d="M1785.7569,-431.6979C1782.4286,-421.3309 1778.5133,-408.061 1776,-396 1766.3392,-349.6396 1760.7688,-294.7748 1758.0651,-262.2631"/>
<polygon fill="#000000" stroke="#000000" points="1761.5416,-261.8284 1757.2564,-252.1389 1754.5639,-262.3859 1761.5416,-261.8284"/>
</g>
<!-- sepa&#45;parser&#45;&gt;http -->
<g id="edge162" class="edge">
<title>sepa&#45;parser&#45;&gt;http</title>
<path fill="none" stroke="#000000" d="M1837.9934,-442.4849C1896.8287,-432.69 2001.7948,-414.605 2091,-396 2158.962,-381.8256 2174.4531,-371.0035 2243,-360 2465.345,-324.3082 2736.0238,-311.1047 2833.6564,-307.2982"/>
<polygon fill="#000000" stroke="#000000" points="2834.0353,-310.7864 2843.8951,-306.909 2833.7694,-303.7914 2834.0353,-310.7864"/>
</g>
<!-- sepa&#45;parser&#45;&gt;kafka&#45;warp10 -->
<g id="edge170" class="edge">
<title>sepa&#45;parser&#45;&gt;kafka&#45;warp10</title>
<path fill="none" stroke="#000000" d="M1838.9732,-443.4835C1932.2797,-430.5392 2141.0761,-401.5733 2246.8968,-386.8929"/>
<polygon fill="#000000" stroke="#000000" points="2247.3845,-390.3589 2256.8087,-385.5179 2246.4226,-383.4253 2247.3845,-390.3589"/>
</g>
<!-- sepa&#45;parser&#45;&gt;infra&#45;sendgrid -->
<g id="edge163" class="edge">
<title>sepa&#45;parser&#45;&gt;infra&#45;sendgrid</title>
<path fill="none" stroke="#000000" d="M1789.9491,-431.7607C1788.7521,-411.3983 1790.284,-378.8385 1809,-360 1890.1882,-278.2805 2241.5405,-247.4031 2392.5702,-237.7582"/>
<polygon fill="#000000" stroke="#000000" points="2392.8962,-241.2447 2402.6579,-237.1266 2392.4587,-234.2584 2392.8962,-241.2447"/>
</g>
<!-- sepa&#45;parser&#45;&gt;monitoring -->
<g id="edge167" class="edge">
<title>sepa&#45;parser&#45;&gt;monitoring</title>
<path fill="none" stroke="#000000" d="M1830.7208,-438.432C1872.7437,-425.8774 1939.8906,-405.8169 1985.1764,-392.2875"/>
<polygon fill="#000000" stroke="#000000" points="1986.1937,-395.6366 1994.7733,-389.4204 1984.1899,-388.9295 1986.1937,-395.6366"/>
</g>
<!-- sepa&#45;parser&#45;&gt;sepa&#45;schema -->
<g id="edge164" class="edge">
<title>sepa&#45;parser&#45;&gt;sepa&#45;schema</title>
<path fill="none" stroke="#000000" d="M1811.1959,-432.937C1821.6869,-423.6116 1834.8442,-411.9163 1846.3196,-401.716"/>
<polygon fill="#000000" stroke="#000000" points="1848.7931,-404.2001 1853.9419,-394.9405 1844.1425,-398.9682 1848.7931,-404.2001"/>
</g>
<!-- tools&#45;&gt;cobalt&#45;model -->
<g id="edge58" class="edge">
<title>tools&#45;&gt;cobalt&#45;model</title>
<path fill="none" stroke="#000000" d="M3202.6836,-719.8518C3193.0775,-652.1871 3150.1689,-412.133 3012,-288 2941.7231,-224.8622 2904.7257,-234.0879 2812,-216 2684.8705,-191.201 1776.7254,-169.2154 1520.9117,-163.462"/>
<polygon fill="#000000" stroke="#000000" points="1520.7297,-159.9571 1510.6538,-163.2321 1520.5728,-166.9554 1520.7297,-159.9571"/>
</g>
<!-- tools&#45;&gt;cobalt&#45;test -->
<g id="edge59" class="edge">
<title>tools&#45;&gt;cobalt&#45;test</title>
<path fill="none" stroke="#000000" d="M3177.5746,-735.7638C3041.6807,-724.3256 2447,-669.9334 2447,-594 2447,-594 2447,-594 2447,-522 2447,-482.9571 2410.7009,-382.7903 2379,-360 2324.3815,-320.734 1864.0481,-309.5509 1700.4283,-306.8003"/>
<polygon fill="#000000" stroke="#000000" points="1700.1434,-303.2953 1690.0875,-306.6311 1700.0288,-310.2943 1700.1434,-303.2953"/>
</g>
<!-- tools&#45;&gt;cobalt&#45;infrastructure -->
<g id="edge61" class="edge">
<title>tools&#45;&gt;cobalt&#45;infrastructure</title>
<path fill="none" stroke="#000000" d="M3220.5394,-723.0413C3266.8392,-677.7452 3405.6834,-536.5501 3487,-396 3527.0931,-326.7019 3540.3672,-268.5878 3480,-216 3402.1071,-148.145 3360.7179,-162.0297 3259,-144 3120.7331,-119.4919 2153.5423,-98.0421 1848.1654,-91.8164"/>
<polygon fill="#000000" stroke="#000000" points="1848.0874,-88.3142 1838.0183,-91.6102 1847.9451,-95.3128 1848.0874,-88.3142"/>
</g>
<!-- tools&#45;&gt;http -->
<g id="edge60" class="edge">
<title>tools&#45;&gt;http</title>
<path fill="none" stroke="#000000" d="M3195.4739,-720.8624C3163.9132,-664.97 3058.0449,-484.4245 2940,-360 2927.6328,-346.9645 2911.9877,-334.4614 2898.7228,-324.775"/>
<polygon fill="#000000" stroke="#000000" points="2900.5804,-321.8007 2890.4079,-318.839 2896.5131,-327.4979 2900.5804,-321.8007"/>
</g>
<!-- tools&#45;&gt;infra&#45;monext -->
<g id="edge56" class="edge">
<title>tools&#45;&gt;infra&#45;monext</title>
<path fill="none" stroke="#000000" d="M3214.0194,-720.6365C3244.121,-662.6869 3341.2868,-475.6297 3377.8821,-405.1788"/>
<polygon fill="#000000" stroke="#000000" points="3381.1269,-406.5249 3382.6306,-396.0373 3374.9149,-403.2982 3381.1269,-406.5249"/>
</g>
<!-- tools&#45;&gt;core -->
<g id="edge54" class="edge">
<title>tools&#45;&gt;core</title>
<path fill="none" stroke="#000000" d="M3177.6398,-737.6474C3015.7723,-735.4314 2189.3504,-722.2642 2153,-684 2133.4072,-663.3757 2157.6621,-634.0246 2179.1927,-614.5148"/>
<polygon fill="#000000" stroke="#000000" points="2181.6611,-617.0067 2186.9155,-607.8066 2177.0707,-611.722 2181.6611,-617.0067"/>
</g>
<!-- tools&#45;&gt;card -->
<g id="edge55" class="edge">
<title>tools&#45;&gt;card</title>
<path fill="none" stroke="#000000" d="M3230.9181,-732.0796C3268.626,-723.1845 3340.5949,-705.1423 3400,-684 3403.076,-682.9053 3406.2463,-681.6852 3409.3971,-680.4105"/>
<polygon fill="#000000" stroke="#000000" points="3410.8259,-683.6065 3418.6774,-676.4927 3408.1034,-677.1576 3410.8259,-683.6065"/>
</g>
<!-- infra&#45;sab -->
<g id="node30" class="node">
<title>infra&#45;sab</title>
<ellipse fill="none" stroke="#000000" cx="3469" cy="-522" rx="41.5679" ry="18"/>
<text text-anchor="middle" x="3469" y="-517.8" font-family="Times,serif" font-size="14.00" fill="#000000">infra&#45;sab</text>
</g>
<!-- tools&#45;&gt;infra&#45;sab -->
<g id="edge57" class="edge">
<title>tools&#45;&gt;infra&#45;sab</title>
<path fill="none" stroke="#000000" d="M3225.4129,-725.9057C3229.2115,-723.8313 3233.1859,-721.7751 3237,-720 3278.3131,-700.7732 3295.797,-710.3131 3333,-684 3385.8412,-646.6262 3430.3865,-583.9264 3453.0123,-548.4885"/>
<polygon fill="#000000" stroke="#000000" points="3456.1903,-550.009 3458.5431,-539.6787 3450.2617,-546.287 3456.1903,-550.009"/>
</g>
<!-- card&#45;&gt;cobalt&#45;model -->
<g id="edge151" class="edge">
<title>card&#45;&gt;cobalt&#45;model</title>
<path fill="none" stroke="#000000" d="M3467.7939,-662.9696C3521.3703,-656.3914 3639.0582,-639.1736 3668,-612 3692.3936,-589.0968 3685.0569,-573.0934 3690,-540 3717.031,-359.0325 3609.7637,-273.3244 3436,-216 3343.2339,-185.3966 1856.296,-166.6047 1520.8675,-162.7427"/>
<polygon fill="#000000" stroke="#000000" points="1520.8553,-159.2424 1510.8158,-162.6274 1520.775,-166.2419 1520.8553,-159.2424"/>
</g>
<!-- card&#45;&gt;domain -->
<g id="edge148" class="edge">
<title>card&#45;&gt;domain</title>
<path fill="none" stroke="#000000" d="M3467.9343,-662.8677C3518.063,-656.4245 3622.551,-639.9005 3644,-612 3754.3598,-468.4456 3568.0908,-347.2884 3397,-288 3272.0428,-244.6984 2863.9367,-236.0926 2724.3318,-234.4051"/>
<polygon fill="#000000" stroke="#000000" points="2724.0166,-230.9014 2713.9772,-234.2868 2723.9366,-237.9009 2724.0166,-230.9014"/>
</g>
<!-- card&#45;&gt;cobalt&#45;test -->
<g id="edge150" class="edge">
<title>card&#45;&gt;cobalt&#45;test</title>
<path fill="none" stroke="#000000" d="M3415.6196,-659.3212C3323.8402,-635.0723 3000.7134,-548.8535 2737,-468 2591.4751,-423.3826 2561.3125,-389.5631 2412,-360 2275.5604,-332.9857 1853.7499,-314.241 1699.9011,-308.1454"/>
<polygon fill="#000000" stroke="#000000" points="1699.8571,-304.6411 1689.7272,-307.7453 1699.5819,-311.6357 1699.8571,-304.6411"/>
</g>
<!-- card&#45;&gt;cobalt&#45;infrastructure -->
<g id="edge153" class="edge">
<title>card&#45;&gt;cobalt&#45;infrastructure</title>
<path fill="none" stroke="#000000" d="M3467.9983,-663.7497C3515.056,-659.059 3614.3911,-645.7186 3691,-612 3754.3189,-584.1309 3818,-591.1807 3818,-522 3818,-522 3818,-522 3818,-378 3818,-260.3002 3800.2942,-194.5449 3694,-144 3609.9127,-104.0149 2222.9441,-92.8071 1848.5193,-90.5035"/>
<polygon fill="#000000" stroke="#000000" points="1848.2901,-87.0021 1838.269,-90.4411 1848.2474,-94.002 1848.2901,-87.0021"/>
</g>
<!-- card&#45;&gt;http -->
<g id="edge152" class="edge">
<title>card&#45;&gt;http</title>
<path fill="none" stroke="#000000" d="M3425.842,-650.9184C3375.8527,-601.9706 3209.9716,-445.7612 3045,-360 3000.1727,-336.6963 2943.5442,-321.4503 2907.2935,-313.2792"/>
<polygon fill="#000000" stroke="#000000" points="2907.7022,-309.7859 2897.1849,-311.0654 2906.2046,-316.6238 2907.7022,-309.7859"/>
</g>
<!-- card&#45;&gt;infra&#45;monext -->
<g id="edge155" class="edge">
<title>card&#45;&gt;infra&#45;monext</title>
<path fill="none" stroke="#000000" d="M3437.6036,-648.0771C3433.0056,-623.6628 3424.6151,-578.573 3418,-540 3409.9541,-493.0839 3401.3336,-438.389 3396.3171,-406.0622"/>
<polygon fill="#000000" stroke="#000000" points="3399.7482,-405.3473 3394.76,-396.0002 3392.8306,-406.4179 3399.7482,-405.3473"/>
</g>
<!-- card&#45;&gt;core -->
<g id="edge149" class="edge">
<title>card&#45;&gt;core</title>
<path fill="none" stroke="#000000" d="M3414.0349,-664.4292C3253.8666,-655.099 2428.2132,-607.0027 2242.237,-596.1691"/>
<polygon fill="#000000" stroke="#000000" points="2242.3255,-592.6685 2232.1388,-595.5809 2241.9184,-599.6566 2242.3255,-592.6685"/>
</g>
<!-- card&#45;&gt;infra&#45;sab -->
<g id="edge154" class="edge">
<title>card&#45;&gt;infra&#45;sab</title>
<path fill="none" stroke="#000000" d="M3442.2312,-647.908C3443.7044,-629.6177 3446.6683,-600.6152 3452,-576 3453.8934,-567.2587 3456.5888,-557.9086 3459.2767,-549.487"/>
<polygon fill="#000000" stroke="#000000" points="3462.6707,-550.3718 3462.4974,-539.7784 3456.0268,-548.1677 3462.6707,-550.3718"/>
</g>
<!-- infra&#45;cards&#45;repository -->
<g id="node39" class="node">
<title>infra&#45;cards&#45;repository</title>
<ellipse fill="none" stroke="#000000" cx="3548" cy="-594" rx="87.4134" ry="18"/>
<text text-anchor="middle" x="3548" y="-589.8" font-family="Times,serif" font-size="14.00" fill="#000000">infra&#45;cards&#45;repository</text>
</g>
<!-- card&#45;&gt;infra&#45;cards&#45;repository -->
<g id="edge156" class="edge">
<title>card&#45;&gt;infra&#45;cards&#45;repository</title>
<path fill="none" stroke="#000000" d="M3460.1295,-653.1278C3475.007,-643.1168 3496.0341,-628.9677 3513.7888,-617.0206"/>
<polygon fill="#000000" stroke="#000000" points="3515.858,-619.8469 3522.2006,-611.3603 3511.95,-614.0393 3515.858,-619.8469"/>
</g>
<!-- psd2&#45;app&#45;&gt;infra&#45;cassandra -->
<g id="edge104" class="edge">
<title>psd2&#45;app&#45;&gt;infra&#45;cassandra</title>
<path fill="none" stroke="#000000" d="M2164.918,-659.8752C2082.4929,-646.2713 1889.2766,-609.1464 1741,-540 1660.2087,-502.3243 1577.2272,-436.9792 1535.5107,-401.8983"/>
<polygon fill="#000000" stroke="#000000" points="1537.6217,-399.0994 1527.7304,-395.3028 1533.0952,-404.439 1537.6217,-399.0994"/>
</g>
<!-- psd2&#45;app&#45;&gt;domain -->
<g id="edge102" class="edge">
<title>psd2&#45;app&#45;&gt;domain</title>
<path fill="none" stroke="#000000" d="M2236.2078,-653.6343C2242.6679,-651.459 2249.4898,-649.4353 2256,-648 2555.2624,-582.0219 2669.5062,-689.5266 2937,-540 2976.5021,-517.9187 2988.0214,-508.0986 3009,-468 3046.5634,-396.2009 3046.4386,-334.3901 2980,-288 2939.2562,-259.551 2797.7646,-243.9356 2723.4342,-237.5231"/>
<polygon fill="#000000" stroke="#000000" points="2723.6675,-234.0305 2713.409,-236.679 2723.0801,-241.0058 2723.6675,-234.0305"/>
</g>
<!-- psd2&#45;app&#45;&gt;cobalt&#45;test -->
<g id="edge105" class="edge">
<title>psd2&#45;app&#45;&gt;cobalt&#45;test</title>
<path fill="none" stroke="#000000" d="M2220.2391,-648.879C2228.1007,-638.8814 2236.886,-625.5877 2241,-612 2245.6365,-596.6865 2244.4117,-591.632 2241,-576 2217.6744,-469.1247 2217.4569,-415.1753 2123,-360 2087.0725,-339.0136 1818.3604,-318.1117 1699.3923,-309.7765"/>
<polygon fill="#000000" stroke="#000000" points="1699.6,-306.2826 1689.3812,-309.0801 1699.1141,-313.2657 1699.6,-306.2826"/>
</g>
<!-- psd2&#45;app&#45;&gt;http -->
<g id="edge103" class="edge">
<title>psd2&#45;app&#45;&gt;http</title>
<path fill="none" stroke="#000000" d="M2236.8641,-653.8996C2243.1519,-651.755 2249.7416,-649.6752 2256,-648 2509.7138,-580.088 2597.8903,-648.6705 2837,-540 2883.9513,-518.6616 2905.5342,-514.4224 2928,-468 2935.6338,-452.2259 2930.5292,-376.954 2923,-360 2917.2479,-347.0476 2906.981,-335.3439 2897.0808,-326.1701"/>
<polygon fill="#000000" stroke="#000000" points="2899.1453,-323.3261 2889.3129,-319.3797 2894.5383,-328.5963 2899.1453,-323.3261"/>
</g>
<!-- psd2&#45;app&#45;&gt;core -->
<g id="edge106" class="edge">
<title>psd2&#45;app&#45;&gt;core</title>
<path fill="none" stroke="#000000" d="M2205,-647.8314C2205,-640.131 2205,-630.9743 2205,-622.4166"/>
<polygon fill="#000000" stroke="#000000" points="2208.5001,-622.4132 2205,-612.4133 2201.5001,-622.4133 2208.5001,-622.4132"/>
</g>
<!-- postgres&#45;lock&#45;&gt;cobalt&#45;test -->
<g id="edge101" class="edge">
<title>postgres&#45;lock&#45;&gt;cobalt&#45;test</title>
<path fill="none" stroke="#000000" d="M879.155,-365.9339C888.5981,-363.6527 898.5858,-361.5111 908,-360 1158.3611,-319.8131 1461.5705,-309.485 1585.7668,-306.8696"/>
<polygon fill="#000000" stroke="#000000" points="1585.8843,-310.368 1595.8116,-306.6668 1585.7429,-303.3695 1585.8843,-310.368"/>
</g>
<!-- postgres&#45;lock&#45;&gt;infra&#45;postgres -->
<g id="edge100" class="edge">
<title>postgres&#45;lock&#45;&gt;infra&#45;postgres</title>
<path fill="none" stroke="#000000" d="M803.7166,-362.9064C780.4889,-352.0468 748.9535,-337.3029 723.8021,-325.5438"/>
<polygon fill="#000000" stroke="#000000" points="725.047,-322.2623 714.5058,-321.1975 722.0822,-328.6035 725.047,-322.2623"/>
</g>
<!-- cobalt&#45;exploitation&#45;&gt;http -->
<g id="edge118" class="edge">
<title>cobalt&#45;exploitation&#45;&gt;http</title>
<path fill="none" stroke="#000000" d="M2417.7291,-662.8364C2571.0438,-655.9233 2907.5184,-637.9819 2953,-612 3033.0331,-566.2801 3078.161,-521.4678 3056,-432 3047.3004,-396.8781 3045.236,-383.8209 3018,-360 2986.5143,-332.4623 2939.7807,-318.5203 2907.4982,-311.7785"/>
<polygon fill="#000000" stroke="#000000" points="2908.0482,-308.3198 2897.5622,-309.8345 2906.7041,-315.1896 2908.0482,-308.3198"/>
</g>
<!-- cobalt&#45;exploitation&#45;&gt;core -->
<g id="edge117" class="edge">
<title>cobalt&#45;exploitation&#45;&gt;core</title>
<path fill="none" stroke="#000000" d="M2310.5694,-649.4817C2288.0352,-637.6389 2257.8419,-621.7709 2235.5182,-610.0388"/>
<polygon fill="#000000" stroke="#000000" points="2236.9583,-606.8417 2226.478,-605.2877 2233.7018,-613.0381 2236.9583,-606.8417"/>
</g>
<!-- cobalt&#45;events&#45;&gt;cobalt&#45;events&#45;model -->
<g id="edge90" class="edge">
<title>cobalt&#45;events&#45;&gt;cobalt&#45;events&#45;model</title>
<path fill="none" stroke="#000000" d="M1250.1069,-510.0298C1207.9686,-498.2703 1143.2708,-480.2151 1095.8308,-466.976"/>
<polygon fill="#000000" stroke="#000000" points="1096.5567,-463.5449 1085.9839,-464.2281 1094.6751,-470.2873 1096.5567,-463.5449"/>
</g>
<!-- cobalt&#45;events&#45;&gt;cobalt&#45;model -->
<g id="edge92" class="edge">
<title>cobalt&#45;events&#45;&gt;cobalt&#45;model</title>
<path fill="none" stroke="#000000" d="M1284.0936,-503.9534C1271.9497,-480.1563 1250.0983,-440.316 1236,-432 1120.3772,-363.799 736.8541,-481.0549 633,-396 595.2944,-365.1197 585.3424,-327.4215 614,-288 674.9913,-204.1002 734.3495,-236.6467 836,-216 940.0227,-194.8714 1250.2474,-174.2651 1387.4597,-165.9032"/>
<polygon fill="#000000" stroke="#000000" points="1388.0549,-169.3737 1397.8247,-165.2748 1387.6312,-162.3865 1388.0549,-169.3737"/>
</g>
<!-- cobalt&#45;events&#45;&gt;kafka -->
<g id="edge89" class="edge">
<title>cobalt&#45;events&#45;&gt;kafka</title>
<path fill="none" stroke="#000000" d="M1289.4585,-504.0328C1285.5361,-485.5907 1278.4903,-456.244 1269,-432 1262.4053,-415.1531 1254.3498,-413.561 1250,-396 1246.1531,-380.4693 1242.2767,-374.0125 1250,-360 1278.9265,-307.5179 1307.7094,-308.5544 1364,-288 1428.27,-264.532 1629.8522,-244.8914 1716.1522,-237.3303"/>
<polygon fill="#000000" stroke="#000000" points="1716.6704,-240.7986 1726.3307,-236.4478 1716.0657,-233.8247 1716.6704,-240.7986"/>
</g>
<!-- cobalt&#45;events&#45;&gt;http -->
<g id="edge88" class="edge">
<title>cobalt&#45;events&#45;&gt;http</title>
<path fill="none" stroke="#000000" d="M1349.8572,-519.8581C1594.145,-510.6237 2543.6419,-474.3932 2574,-468 2616.9655,-458.9518 2624.3997,-446.0469 2666,-432 2721.18,-413.3677 2742.7901,-427.151 2792,-396 2818.1669,-379.4357 2840.6293,-351.6769 2854.8391,-331.359"/>
<polygon fill="#000000" stroke="#000000" points="2857.8688,-333.1275 2860.5905,-322.8882 2852.0776,-329.1953 2857.8688,-333.1275"/>
</g>
<!-- cobalt&#45;events&#45;&gt;cre&#45;model -->
<g id="edge91" class="edge">
<title>cobalt&#45;events&#45;&gt;cre&#45;model</title>
<path fill="none" stroke="#000000" d="M1267.5855,-505.6621C1251.647,-495.4159 1230.9403,-482.1045 1213.773,-471.0684"/>
<polygon fill="#000000" stroke="#000000" points="1215.4668,-467.9964 1205.1623,-465.5329 1211.6814,-473.8847 1215.4668,-467.9964"/>
</g>
<!-- topic&#45;scheduler -->
<g id="node35" class="node">
<title>topic&#45;scheduler</title>
<ellipse fill="none" stroke="#000000" cx="1424" cy="-450" rx="64.7372" ry="18"/>
<text text-anchor="middle" x="1424" y="-445.8" font-family="Times,serif" font-size="14.00" fill="#000000">topic&#45;scheduler</text>
</g>
<!-- cobalt&#45;events&#45;&gt;topic&#45;scheduler -->
<g id="edge93" class="edge">
<title>cobalt&#45;events&#45;&gt;topic&#45;scheduler</title>
<path fill="none" stroke="#000000" d="M1321.7485,-506.1993C1340.4282,-495.9326 1365.0039,-482.4253 1385.3804,-471.226"/>
<polygon fill="#000000" stroke="#000000" points="1387.3331,-474.1466 1394.4109,-466.2627 1383.9615,-468.0121 1387.3331,-474.1466"/>
</g>
<!-- cobalt&#45;events&#45;&gt;connector -->
<g id="edge94" class="edge">
<title>cobalt&#45;events&#45;&gt;connector</title>
<path fill="none" stroke="#000000" d="M1349.3143,-518.6955C1554.6899,-506.6441 2262.0155,-465.1385 2465.088,-453.2222"/>
<polygon fill="#000000" stroke="#000000" points="2465.4401,-456.7077 2475.2179,-452.6278 2465.03,-449.7197 2465.4401,-456.7077"/>
</g>
<!-- monitoring&#45;&gt;cobalt&#45;model -->
<g id="edge44" class="edge">
<title>monitoring&#45;&gt;cobalt&#45;model</title>
<path fill="none" stroke="#000000" d="M1995.6273,-366.0958C1987.2631,-363.776 1978.3842,-361.5778 1970,-360 1885.9884,-344.1903 1662.4854,-364.1229 1587,-324 1571.8251,-315.934 1506.6248,-231.5601 1473.4911,-187.8878"/>
<polygon fill="#000000" stroke="#000000" points="1476.1425,-185.5914 1467.3162,-179.7307 1470.5613,-189.8164 1476.1425,-185.5914"/>
</g>
<!-- monitoring&#45;&gt;kafka -->
<g id="edge45" class="edge">
<title>monitoring&#45;&gt;kafka</title>
<path fill="none" stroke="#000000" d="M2004.3994,-363.1318C1952.3702,-336.0841 1842.5913,-279.015 1788.0925,-250.6834"/>
<polygon fill="#000000" stroke="#000000" points="1789.3853,-247.4109 1778.8982,-245.9038 1786.1565,-253.6218 1789.3853,-247.4109"/>
</g>
<!-- monitoring&#45;&gt;http -->
<g id="edge46" class="edge">
<title>monitoring&#45;&gt;http</title>
<path fill="none" stroke="#000000" d="M2070.0107,-366.0363C2078.4737,-363.6903 2087.4853,-361.4961 2096,-360 2240.5343,-334.6042 2699.3257,-313.3651 2833.6874,-307.5658"/>
<polygon fill="#000000" stroke="#000000" points="2834.0361,-311.0541 2843.8769,-307.1288 2833.7361,-304.0606 2834.0361,-311.0541"/>
</g>
<!-- infra&#45;sab&#45;&gt;domain -->
<g id="edge115" class="edge">
<title>infra&#45;sab&#45;&gt;domain</title>
<path fill="none" stroke="#000000" d="M3473.5383,-503.9281C3480.563,-471.3768 3490.0613,-402.3476 3457,-360 3425.6043,-319.7859 3395.0503,-343.7265 3348,-324 3315.7366,-310.4731 3311.5994,-297.7458 3278,-288 3174.1255,-257.8705 2846.8314,-241.2141 2724.1009,-235.8977"/>
<polygon fill="#000000" stroke="#000000" points="2724.042,-232.3921 2713.9016,-235.4617 2723.743,-239.3857 2724.042,-232.3921"/>
</g>
<!-- infra&#45;sab&#45;&gt;cobalt&#45;infrastructure -->
<g id="edge116" class="edge">
<title>infra&#45;sab&#45;&gt;cobalt&#45;infrastructure</title>
<path fill="none" stroke="#000000" d="M3504.1311,-512.3608C3577.864,-489.7573 3742,-425.9672 3742,-306 3742,-306 3742,-306 3742,-234 3742,-174.2061 3697.5125,-166.2187 3642,-144 3558.0628,-110.4043 2215.8219,-94.5895 1848.3687,-90.8762"/>
<polygon fill="#000000" stroke="#000000" points="1848.3389,-87.3759 1838.3042,-90.7751 1848.2685,-94.3755 1848.3389,-87.3759"/>
</g>
<!-- sepa&#45;schema&#45;&gt;cobalt&#45;model -->
<g id="edge81" class="edge">
<title>sepa&#45;schema&#45;&gt;cobalt&#45;model</title>
<path fill="none" stroke="#000000" d="M1818.7456,-374.2034C1739.3491,-367.7591 1596.3372,-352.5146 1554,-324 1505.6381,-291.4276 1476.442,-226.8166 1462.9629,-189.7918"/>
<polygon fill="#000000" stroke="#000000" points="1466.1869,-188.4085 1459.575,-180.13 1459.5812,-190.7248 1466.1869,-188.4085"/>
</g>
<!-- sepa&#45;schema&#45;&gt;domain -->
<g id="edge82" class="edge">
<title>sepa&#45;schema&#45;&gt;domain</title>
<path fill="none" stroke="#000000" d="M1921.7083,-369.3834C1981.7492,-358.7538 2086.9004,-340.1112 2177,-324 2345.1153,-293.9384 2544.9607,-257.8641 2632.361,-242.0705"/>
<polygon fill="#000000" stroke="#000000" points="2633.2343,-245.4694 2642.4525,-240.2467 2631.9894,-238.581 2633.2343,-245.4694"/>
</g>
<!-- cre&#45;model&#45;&gt;cobalt&#45;model -->
<g id="edge79" class="edge">
<title>cre&#45;model&#45;&gt;cobalt&#45;model</title>
<path fill="none" stroke="#000000" d="M1184.4561,-431.9912C1191.5109,-399.5413 1210.3675,-330.6691 1250,-288 1295.8882,-238.5959 1365.3774,-201.267 1410.2303,-180.5114"/>
<polygon fill="#000000" stroke="#000000" points="1411.7569,-183.6622 1419.4101,-176.3356 1408.8584,-177.2904 1411.7569,-183.6622"/>
</g>
<!-- cre&#45;model&#45;&gt;infra&#45;postgres -->
<g id="edge80" class="edge">
<title>cre&#45;model&#45;&gt;infra&#45;postgres</title>
<path fill="none" stroke="#000000" d="M1147.3099,-437.5467C1140.3459,-435.3781 1132.9987,-433.3793 1126,-432 1072.1129,-421.3798 670.3959,-436.2262 633,-396 615.0626,-376.705 634.2721,-349.6183 653.6555,-330.2101"/>
<polygon fill="#000000" stroke="#000000" points="656.2019,-332.618 661.0158,-323.1799 651.367,-327.556 656.2019,-332.618"/>
</g>
<!-- data&#45;science&#45;&gt;kafka -->
<g id="edge97" class="edge">
<title>data&#45;science&#45;&gt;kafka</title>
<path fill="none" stroke="#000000" d="M1906.1807,-507.7827C1961.946,-483.1332 2070.4081,-431.6856 2091,-396 2098.9967,-382.1417 2100.0076,-373.2236 2091,-360 2056.3497,-309.1313 1874.7152,-261.5378 1794.3339,-242.6129"/>
<polygon fill="#000000" stroke="#000000" points="1794.6751,-239.0987 1784.1418,-240.2395 1793.0874,-245.9163 1794.6751,-239.0987"/>
</g>
<!-- data&#45;science&#45;&gt;sepa&#45;schema -->
<g id="edge98" class="edge">
<title>data&#45;science&#45;&gt;sepa&#45;schema</title>
<path fill="none" stroke="#000000" d="M1873,-503.7623C1873,-479.201 1873,-435.2474 1873,-406.3541"/>
<polygon fill="#000000" stroke="#000000" points="1876.5001,-406.0896 1873,-396.0896 1869.5001,-406.0897 1876.5001,-406.0896"/>
</g>
<!-- sepa&#45;reconciliation&#45;&gt;cobalt&#45;model -->
<g id="edge76" class="edge">
<title>sepa&#45;reconciliation&#45;&gt;cobalt&#45;model</title>
<path fill="none" stroke="#000000" d="M2847.4079,-432.8591C2859.5664,-423.237 2873.6322,-410.3025 2883,-396 2909.9413,-354.8668 2934.7195,-328.6129 2907,-288 2857.4949,-215.4683 2808.9273,-234.1134 2723,-216 2605.2757,-191.1838 1766.0154,-169.4343 1520.9968,-163.5582"/>
<polygon fill="#000000" stroke="#000000" points="1520.8912,-160.0548 1510.8105,-163.3148 1520.724,-167.0528 1520.8912,-160.0548"/>
</g>
<!-- sepa&#45;reconciliation&#45;&gt;infra&#45;cassandra -->
<g id="edge78" class="edge">
<title>sepa&#45;reconciliation&#45;&gt;infra&#45;cassandra</title>
<path fill="none" stroke="#000000" d="M2749.4884,-444.1985C2699.9271,-440.4071 2633.0568,-435.5236 2574,-432 2234.228,-411.7277 2148.8915,-414.1596 1809,-396 1731.1684,-391.8416 1642.0568,-386.4318 1581.1122,-382.6327"/>
<polygon fill="#000000" stroke="#000000" points="1581.0242,-379.1204 1570.8254,-381.99 1580.5877,-386.1068 1581.0242,-379.1204"/>
</g>
<!-- sepa&#45;reconciliation&#45;&gt;http -->
<g id="edge77" class="edge">
<title>sepa&#45;reconciliation&#45;&gt;http</title>
<path fill="none" stroke="#000000" d="M2841.7323,-432.3333C2850.7852,-422.5673 2860.795,-409.6628 2866,-396 2873.498,-376.3184 2874.4941,-352.4561 2873.7525,-334.2487"/>
<polygon fill="#000000" stroke="#000000" points="2877.2456,-334.0279 2873.151,-324.2563 2870.2582,-334.4486 2877.2456,-334.0279"/>
</g>
<!-- topic&#45;scheduler&#45;&gt;cobalt&#45;model -->
<g id="edge85" class="edge">
<title>topic&#45;scheduler&#45;&gt;cobalt&#45;model</title>
<path fill="none" stroke="#000000" d="M1392.6794,-434.1384C1378.3956,-425.0855 1362.9286,-412.273 1355,-396 1347.992,-381.6164 1353.3068,-375.9102 1355,-360 1361.9278,-294.9014 1351.4559,-271.6105 1386,-216 1393.8732,-203.3254 1405.8231,-192.3795 1417.5205,-183.7202"/>
<polygon fill="#000000" stroke="#000000" points="1419.75,-186.4317 1425.9315,-177.827 1415.7333,-180.6989 1419.75,-186.4317"/>
</g>
<!-- topic&#45;scheduler&#45;&gt;infra&#45;cassandra -->
<g id="edge87" class="edge">
<title>topic&#45;scheduler&#45;&gt;infra&#45;cassandra</title>
<path fill="none" stroke="#000000" d="M1444.3341,-432.5708C1455.0647,-423.3732 1468.3936,-411.9484 1480.0785,-401.9328"/>
<polygon fill="#000000" stroke="#000000" points="1482.5384,-404.434 1487.8532,-395.2687 1477.9828,-399.1192 1482.5384,-404.434"/>
</g>
<!-- topic&#45;scheduler&#45;&gt;cobalt&#45;test -->
<g id="edge86" class="edge">
<title>topic&#45;scheduler&#45;&gt;cobalt&#45;test</title>
<path fill="none" stroke="#000000" d="M1420.7398,-431.7396C1418.2709,-411.665 1417.7856,-379.6588 1435,-360 1455.0144,-337.1437 1533.7471,-321.5136 1588.3863,-313.1659"/>
<polygon fill="#000000" stroke="#000000" points="1588.913,-316.6262 1598.2887,-311.6919 1587.8823,-309.7025 1588.913,-316.6262"/>
</g>
<!-- topic&#45;scheduler&#45;&gt;kafka -->
<g id="edge84" class="edge">
<title>topic&#45;scheduler&#45;&gt;kafka</title>
<path fill="none" stroke="#000000" d="M1396.984,-433.479C1384.453,-424.1877 1370.8418,-411.3624 1364,-396 1357.4906,-381.384 1355.444,-373.5202 1364,-360 1402.7403,-298.7826 1625.8686,-255.5174 1717.1207,-240.1525"/>
<polygon fill="#000000" stroke="#000000" points="1717.774,-243.592 1727.0654,-238.5009 1716.6271,-236.6866 1717.774,-243.592"/>
</g>
<!-- topic&#45;scheduler&#45;&gt;http -->
<g id="edge83" class="edge">
<title>topic&#45;scheduler&#45;&gt;http</title>
<path fill="none" stroke="#000000" d="M1468.554,-436.8361C1539.7609,-416.4236 1683.9379,-377.6524 1809,-360 2013.1397,-331.1858 2669.4318,-311.5465 2833.5358,-307.0052"/>
<polygon fill="#000000" stroke="#000000" points="2833.7232,-310.5015 2843.6232,-306.728 2833.5308,-303.5041 2833.7232,-310.5015"/>
</g>
<!-- connector&#45;&gt;domain -->
<g id="edge124" class="edge">
<title>connector&#45;&gt;domain</title>
<path fill="none" stroke="#000000" d="M2549.1358,-436.0508C2566.2968,-426.6631 2587.4275,-412.9194 2602,-396 2636.8266,-355.5646 2658.734,-296.2346 2669.3457,-261.7203"/>
<polygon fill="#000000" stroke="#000000" points="2672.784,-262.4368 2672.2782,-251.854 2666.0741,-260.4424 2672.784,-262.4368"/>
</g>
<!-- connector&#45;&gt;cobalt&#45;infrastructure -->
<g id="edge122" class="edge">
<title>connector&#45;&gt;cobalt&#45;infrastructure</title>
<path fill="none" stroke="#000000" d="M2534.4211,-432.6194C2554.3818,-406.7394 2588,-355.7651 2588,-306 2588,-306 2588,-306 2588,-234 2588,-207.0628 2750.3509,-232.8133 2355,-144 2260.4863,-122.768 1988.3091,-103.9461 1845.657,-95.1943"/>
<polygon fill="#000000" stroke="#000000" points="1845.8087,-91.6972 1835.6141,-94.5817 1845.3825,-98.6842 1845.8087,-91.6972"/>
</g>
<!-- connector&#45;&gt;kafka -->
<g id="edge120" class="edge">
<title>connector&#45;&gt;kafka</title>
<path fill="none" stroke="#000000" d="M2504.0349,-432.9346C2484.2546,-412.7483 2448.657,-379.4383 2412,-360 2309.8465,-305.8304 2275.175,-311.6874 2162,-288 2029.1615,-260.1971 1868.7222,-243.8352 1795.6777,-237.309"/>
<polygon fill="#000000" stroke="#000000" points="1795.8169,-233.8078 1785.5485,-236.4173 1795.203,-240.7808 1795.8169,-233.8078"/>
</g>
<!-- connector&#45;&gt;http -->
<g id="edge119" class="edge">
<title>connector&#45;&gt;http</title>
<path fill="none" stroke="#000000" d="M2561.753,-442.9249C2620.2029,-432.6085 2723.071,-412.8322 2757,-396 2779.3279,-384.9231 2780.5198,-375.5485 2800,-360 2814.4961,-348.4297 2830.9683,-335.8664 2844.395,-325.7717"/>
<polygon fill="#000000" stroke="#000000" points="2846.8222,-328.3265 2852.727,-319.5297 2842.6252,-322.7242 2846.8222,-328.3265"/>
</g>
<!-- connector&#45;&gt;kafka&#45;warp10 -->
<g id="edge121" class="edge">
<title>connector&#45;&gt;kafka&#45;warp10</title>
<path fill="none" stroke="#000000" d="M2485.4879,-438.1107C2451.1784,-426.2911 2398.2407,-408.0542 2359.6692,-394.7664"/>
<polygon fill="#000000" stroke="#000000" points="2360.7872,-391.4498 2350.1925,-391.5017 2358.5072,-398.068 2360.7872,-391.4498"/>
</g>
<!-- connector&#45;&gt;infra&#45;redis -->
<g id="edge123" class="edge">
<title>connector&#45;&gt;infra&#45;redis</title>
<path fill="none" stroke="#000000" d="M2551.9425,-437.2936C2581.6854,-425.4621 2626.2165,-407.7482 2658.8609,-394.7625"/>
<polygon fill="#000000" stroke="#000000" points="2660.1569,-398.0138 2668.1551,-391.0654 2657.5695,-391.5095 2660.1569,-398.0138"/>
</g>
<!-- update&#45;cassandra -->
<g id="node37" class="node">
<title>update&#45;cassandra</title>
<ellipse fill="none" stroke="#000000" cx="289" cy="-378" rx="70.9927" ry="18"/>
<text text-anchor="middle" x="289" y="-373.8" font-family="Times,serif" font-size="14.00" fill="#000000">update&#45;cassandra</text>
</g>
<!-- update&#45;cassandra&#45;&gt;cobalt&#45;infrastructure -->
<g id="edge95" class="edge">
<title>update&#45;cassandra&#45;&gt;cobalt&#45;infrastructure</title>
<path fill="none" stroke="#000000" d="M309.2918,-360.6572C348.7953,-327.7481 439.897,-255.9673 528,-216 643.0565,-163.8055 678.1989,-163.6715 803,-144 967.0971,-118.1346 1458.6846,-99.6622 1664.1555,-92.8674"/>
<polygon fill="#000000" stroke="#000000" points="1664.4346,-96.3602 1674.3141,-92.5333 1664.2044,-89.364 1664.4346,-96.3602"/>
</g>
<!-- update&#45;cassandra&#45;&gt;infra&#45;postgres -->
<g id="edge96" class="edge">
<title>update&#45;cassandra&#45;&gt;infra&#45;postgres</title>
<path fill="none" stroke="#000000" d="M343.356,-366.1927C353.5267,-364.0677 364.0776,-361.9198 374,-360 458.9472,-343.5642 557.5016,-326.6633 619.7956,-316.2468"/>
<polygon fill="#000000" stroke="#000000" points="620.566,-319.6667 629.8536,-314.5686 619.4139,-312.7621 620.566,-319.6667"/>
</g>
<!-- infra&#45;redis&#45;&gt;domain -->
<g id="edge125" class="edge">
<title>infra&#45;redis&#45;&gt;domain</title>
<path fill="none" stroke="#000000" d="M2697.9604,-359.7623C2693.8488,-335.0928 2686.4766,-290.8598 2681.6622,-261.9731"/>
<polygon fill="#000000" stroke="#000000" points="2685.1114,-261.3781 2680.0149,-252.0896 2678.2066,-262.529 2685.1114,-261.3781"/>
</g>
<!-- infra&#45;redis&#45;&gt;cobalt&#45;test -->
<g id="edge127" class="edge">
<title>infra&#45;redis&#45;&gt;cobalt&#45;test</title>
<path fill="none" stroke="#000000" d="M2655.3166,-373.867C2612.2,-370.0308 2545.7344,-364.2838 2488,-360 2191.5334,-338.0027 1836.1443,-317.0611 1699.9355,-309.2346"/>
<polygon fill="#000000" stroke="#000000" points="1699.9252,-305.7284 1689.7411,-308.6499 1699.5242,-312.7169 1699.9252,-305.7284"/>
</g>
<!-- infra&#45;redis&#45;&gt;http -->
<g id="edge126" class="edge">
<title>infra&#45;redis&#45;&gt;http</title>
<path fill="none" stroke="#000000" d="M2732.5773,-364.6261C2762.816,-351.8191 2808.2242,-332.5874 2838.7013,-319.6794"/>
<polygon fill="#000000" stroke="#000000" points="2840.1905,-322.8498 2848.0337,-315.7269 2837.4605,-316.404 2840.1905,-322.8498"/>
</g>
<!-- infra&#45;cards&#45;repository&#45;&gt;domain -->
<g id="edge161" class="edge">
<title>infra&#45;cards&#45;repository&#45;&gt;domain</title>
<path fill="none" stroke="#000000" d="M3547.508,-575.8359C3545.4217,-533.122 3534.6112,-425.0168 3479,-360 3430.4117,-303.1939 3399.1881,-307.407 3327,-288 3213.0586,-257.368 2853.9017,-240.8239 2724.2574,-235.7299"/>
<polygon fill="#000000" stroke="#000000" points="2724.0064,-232.2176 2713.8782,-235.3274 2723.735,-239.2124 2724.0064,-232.2176"/>
</g>
<!-- e2e&#45;test -->
<g id="node40" class="node">
<title>e2e&#45;test</title>
<ellipse fill="none" stroke="#000000" cx="1470" cy="-666" rx="37.7092" ry="18"/>
<text text-anchor="middle" x="1470" y="-661.8" font-family="Times,serif" font-size="14.00" fill="#000000">e2e&#45;test</text>
</g>
<!-- e2e&#45;test&#45;&gt;cobalt&#45;test -->
<g id="edge158" class="edge">
<title>e2e&#45;test&#45;&gt;cobalt&#45;test</title>
<path fill="none" stroke="#000000" d="M1431.9878,-665.1521C1284.8092,-660.431 766.93,-629.7218 897,-432 902.5527,-423.5593 1054.2108,-362.4999 1064,-360 1161.8785,-335.0047 1460.559,-316.0889 1586.2794,-309.0223"/>
<polygon fill="#000000" stroke="#000000" points="1586.6743,-312.5059 1596.4639,-308.4546 1586.2846,-305.5167 1586.6743,-312.5059"/>
</g>
<!-- e2e&#45;test&#45;&gt;sepa&#45;writer -->
<g id="edge160" class="edge">
<title>e2e&#45;test&#45;&gt;sepa&#45;writer</title>
<path fill="none" stroke="#000000" d="M1454.6924,-649.3008C1446.3171,-640.1641 1435.7832,-628.6726 1426.4907,-618.5353"/>
<polygon fill="#000000" stroke="#000000" points="1429.0202,-616.1152 1419.6829,-611.1086 1423.8601,-620.8453 1429.0202,-616.1152"/>
</g>
<!-- e2e&#45;test&#45;&gt;core -->
<g id="edge159" class="edge">
<title>e2e&#45;test&#45;&gt;core</title>
<path fill="none" stroke="#000000" d="M1504.4343,-658.7513C1522.9135,-655.0789 1546.1216,-650.8137 1567,-648 1794.1972,-617.3815 2069.3947,-601.0498 2167.8022,-595.8573"/>
<polygon fill="#000000" stroke="#000000" points="2168.04,-599.3498 2177.8443,-595.3339 2167.6756,-592.3593 2168.04,-599.3498"/>
</g>
</g>
</svg>
